/* XPM */
static char *xpm______________resized[] = {
/* columns rows colors chars-per-pixel */
"50 50 80 1 ",
"  c #241218",
". c #241219",
"X c #25131A",
"o c #26141B",
"O c #26141C",
"+ c #27141D",
"@ c #291620",
"# c #2B1822",
"$ c #2C1823",
"% c #2C1824",
"& c #2E1A26",
"* c #321D2C",
"= c #341E2E",
"- c #341E2F",
"; c #351E2F",
": c #351F2F",
"> c #351E30",
", c #351F30",
"< c #351E31",
"1 c #351F31",
"2 c #361F30",
"3 c #361E31",
"4 c #361F31",
"5 c #351F32",
"6 c #361F32",
"7 c #371F33",
"8 c #362031",
"9 c #362032",
"0 c #372032",
"q c #372132",
"w c #362033",
"e c #372033",
"r c #372133",
"t c #372034",
"y c #372134",
"u c #372234",
"i c #382033",
"p c #382133",
"a c #382034",
"s c #382134",
"d c #392134",
"f c #382035",
"g c #382135",
"h c #392135",
"j c #382234",
"k c #382235",
"l c #392235",
"z c #382335",
"x c #382136",
"c c #392136",
"v c #392236",
"b c #392336",
"n c #392237",
"m c #392337",
"M c #3A2236",
"N c #3A2237",
"B c #3A2337",
"V c #392238",
"C c #3A2238",
"Z c #3A2338",
"A c #3B2338",
"S c #3A2339",
"D c #3B2339",
"F c #3A2438",
"G c #3B2438",
"H c #3B2439",
"J c #3B243A",
"K c #3C2439",
"L c #3D2439",
"P c #3C243A",
"I c #3D243A",
"U c #3C253A",
"Y c #3D253A",
"T c #3C243B",
"R c #3D243B",
"E c #3C253B",
"W c #3D253B",
"Q c #3E253C",
"! c #3E263C",
"~ c #3E263D",
/* pixels */
"XXX.                                          .XXX",
"XXXooOOOOOOOOOOOOOOOOOOOOOOOOOOOOOOOOOOOOOOOOooXXX",
"XX+@#%%$$$$$$$$$$$$$$$$$$$$$$$$$$$$$$$$$$$$%%#@+XX",
".o@&*--====================================--*&@o.",
" o#*lHHAAAAAAAAAAAAAAAAAAAAAAAAAAAAAAAAAAAAHHl*#o ",
" O%-H~~!QQQQQQQQQQQQQQQQQQQQQQQQQQQQQQQQQQ!~~H-%O ",
" O%-H~~!!!!!!!!!!!!!!!!!!!!!!!!!!!!!!!!!!!!~~H-%O ",
" O$=A!!WWWWWWWWWWWWWWWWWWWWWWWWWWWWWWWWWWWW!!A=$O ",
" O$=AQ!WWWWWWWWWWWWWWWWWWWWWWWWWWWWWWWWWWWW!QA=$O ",
" O$=AQ!WWWWWWWWWWWWRRRRRRRRRRRRWWWWWWWWWWWW!QA=$O ",
" O$=AQ!WWWWWWWWWWWRIIRRRRRRRRIIRWWWWWWWWWWW!QA=$O ",
" O$=AQ!WWWWWWWWWWWYIIIIRRRRIIIIYWWWWWWWWWWW!QA=$O ",
" O$=AQ!WWWWWWEEEEEILLLIIIIIILLLIEEEEEWWWWWW!QA=$O ",
" O$=AQ!WWWWWEEUUPPPLKKKLLLLKKKLPPPUUEEWWWWW!QA=$O ",
" O$=AQ!WWWWWEUUUPPKKKKKKKKKKKKKKPPUUUEWWWWW!QA=$O ",
" O$=AQ!WWWWWEUUUPKHHGAAAAAAAAGHHKPUUUEWWWWW!QA=$O ",
" O$=AQ!WWWWWEUUUJHGABBBNNNNBBBAGHJUUUEWWWWW!QA=$O ",
" O$=AQ!WWWWWEUUKHGZBNMMMMMMMMNBZGHKUUEWWWWW!QA=$O ",
" O$=AQ!WWWRYYUKHGFBbblhddddhlbbBFGHKUYYRWWW!QA=$O ",
" O$=AQ!WWRIIILKHFBbzkjpiiiipjkzbBFHKLIIIRWW!QA=$O ",
" O$=AQ!WWRIILKKGBNbkurq0000qrukbNBGKKLIIRWW!QA=$O ",
" O$=AQ!WWRIILKKABMljrq984489qrjlMBAKKLIIRWW!QA=$O ",
" O$=AQ!WWRIILKKABMlsr982,,289rslMBAKKLIIRWW!QA=$O ",
" O$=AQ!WWRIILKKANMhse92::::29eshMNAKKLIIRWW!QA=$O ",
" O$=AQ!WWRIILKKABMhae4,::::,4eahMBAKKLIIRWW!QA=$O ",
" O$=AQ!WWRIILKKABvga76<>;;><67agvBAKKLIIRWW!QA=$O ",
" O$=AQ!WWRIILKKGBmxa763>>>>367axmBGKKLIIRWW!QA=$O ",
" O$=AQ!WWRILLKKGZmcfe661<<166efcmZGKKLIIRWW!QA=$O ",
" O$=AQ!WWYPPLKKGABvgte655556etgvBAGKKLIIRWW!QA=$O ",
" O$=AQ!WWEPPPKKKAZNcgtewwwwetgcNZAKKKLIIRWW!QA=$O ",
" O$=AQ!WWETPPPKKDABvcgyyttyygcvBADKKLIIIRWW!QA=$O ",
" O$=AQ!WWWEEYYPPJDZBNvxggggxvNBZDJPPYYYRWWW!QA=$O ",
" O$=AQ!WWWWWWWETJJDAZNnnnnnnNZADJJTEWWWWWWW!QA=$O ",
" O$=AQ!WWWWWWWEETJJDAZZCVVCZZADJJTEEWWWWWWW!QA=$O ",
" O$=AQ!WWWWWWEEETTPKHDSSSSSSDHKPTTEEEWWWWWW!QA=$O ",
" O$=AQ!WWWWWEUUERRPKKHHJJJJHHKKPRREUUEWWWWW!QA=$O ",
" O$=AQ!WWWWWEEEERRILKKPJJJJPKKLIRREEEEWWWWW!QA=$O ",
" O$=AQ!WWWWWWEEWWRYYLPPPPPPPPLYYRWWEEWWWWWW!QA=$O ",
" O$=AQ!WWWWWWWWWWWYYYIIIIIIIIYYYWWWWWWWWWWW!QA=$O ",
" O$=AQ!WWWWWWWWWWWWYYYIIIIIIYYYWWWWWWWWWWWW!QA=$O ",
" O$=AQ!WWWWWWWWWWWWWYYYYRRYYYYWWWWWWWWWWWWW!QA=$O ",
" O$=AQ!WWWWWWWWWWWWWWWWWWWWWWWWWWWWWWWWWWWW!QA=$O ",
" O$=A!!WWWWWWWWWWWWWWWWWWWWWWWWWWWWWWWWWWWW!!A=$O ",
" O%-H~~!!!!!!!!!!!!!!!!!!!!!!!!!!!!!!!!!!!!~~H-%O ",
" O%-H~~!QQQQQQQQQQQQQQQQQQQQQQQQQQQQQQQQQQ!~~H-%O ",
" o#*lHHAAAAAAAAAAAAAAAAAAAAAAAAAAAAAAAAAAAAHHl*#o ",
".o@&*--====================================--*&@o.",
"XX+@#%%$$$$$$$$$$$$$$$$$$$$$$$$$$$$$$$$$$$$%%#@+XX",
"XXXooOOOOOOOOOOOOOOOOOOOOOOOOOOOOOOOOOOOOOOOOooXXX",
"XXX.                                          .XXX"
};
