/* XPM */
static char *xpm_________________________resized[] = {
/* columns rows colors chars-per-pixel */
"50 50 200 2 ",
"   c #231218",
".  c #241218",
"X  c #241219",
"o  c #241319",
"O  c #251319",
"+  c #25131A",
"@  c #25131B",
"#  c #26131B",
"$  c #26141B",
"%  c #26141C",
"&  c #27141C",
"*  c #27141D",
"=  c #27151D",
"-  c #28151D",
";  c #28151E",
":  c #28151F",
">  c #28161F",
",  c #29161F",
"<  c #291620",
"1  c #2A1620",
"2  c #2A1720",
"3  c #2A1721",
"4  c #2B1722",
"5  c #2B1822",
"6  c #2B1823",
"7  c #2C1823",
"8  c #2C1824",
"9  c #2C1924",
"0  c #2D1924",
"q  c #2D1925",
"w  c #2D1926",
"e  c #2E1926",
"r  c #2E1A26",
"t  c #2E1A27",
"y  c #2F1A27",
"u  c #2F1B28",
"i  c #301B29",
"p  c #301B2A",
"a  c #301C2A",
"s  c #311C2A",
"d  c #311C2B",
"f  c #321C2B",
"g  c #321D2C",
"h  c #321D2D",
"j  c #331D2D",
"k  c #331E2D",
"l  c #331E2E",
"z  c #341E2E",
"x  c #341E2F",
"c  c #341F2F",
"v  c #351F30",
"b  c #351F31",
"n  c #361F31",
"m  c #362031",
"M  c #362032",
"N  c #372032",
"B  c #372033",
"V  c #372133",
"C  c #382134",
"Z  c #382235",
"A  c #392235",
"S  c #392236",
"D  c #3A2236",
"F  c #3A2336",
"G  c #3A2337",
"H  c #3A2338",
"J  c #3B2338",
"K  c #3B2438",
"L  c #3B2439",
"P  c #3C2439",
"I  c #3C243A",
"U  c #3C253A",
"Y  c #3D253A",
"T  c #3D253B",
"R  c #3D253C",
"E  c #3E253C",
"W  c #3E263C",
"Q  c #3E263D",
"!  c #3F263D",
"~  c #3F273E",
"^  c #41273F",
"/  c #41283F",
"(  c #412840",
")  c #452A44",
"_  c #452B44",
"`  c #462B44",
"'  c #472B44",
"]  c #462B45",
"[  c #4A2D49",
"{  c #4B2E48",
"}  c #4B2F48",
"|  c #4A2E49",
" . c #4B2E49",
".. c #4B2F49",
"X. c #4C2F48",
"o. c #4C2F49",
"O. c #4D2F49",
"+. c #4D3049",
"@. c #4E3049",
"#. c #4E3149",
"$. c #4F3149",
"%. c #4E304A",
"&. c #523349",
"*. c #50324A",
"=. c #52334A",
"-. c #523449",
";. c #53344A",
":. c #53354A",
">. c #543549",
",. c #543649",
"<. c #553649",
"1. c #553749",
"2. c #563749",
"3. c #54354B",
"4. c #56374A",
"5. c #57374A",
"6. c #56374B",
"7. c #57374B",
"8. c #57384A",
"9. c #57384B",
"0. c #593949",
"q. c #58384A",
"w. c #59394B",
"e. c #5B3B4B",
"r. c #5C3B4B",
"t. c #5E3E49",
"y. c #5F3E49",
"u. c #5F3E4B",
"i. c #5D3C4C",
"p. c #613F48",
"a. c #603F49",
"s. c #603E4C",
"d. c #614048",
"f. c #614049",
"g. c #624049",
"h. c #64424A",
"j. c #64424B",
"k. c #65424B",
"l. c #674548",
"z. c #64414C",
"x. c #64424C",
"c. c #64424D",
"v. c #66434C",
"b. c #67444D",
"n. c #6A4748",
"m. c #6B4748",
"M. c #68444D",
"N. c #68454D",
"B. c #6A464C",
"V. c #6C474D",
"C. c #6B4848",
"Z. c #6B4849",
"A. c #6C4848",
"S. c #6C4949",
"D. c #6D4A48",
"F. c #6E4A48",
"G. c #6F4A48",
"H. c #6F4B48",
"J. c #6F4B49",
"K. c #6F4A4B",
"L. c #6F4A4C",
"P. c #6F4A4E",
"I. c #704B48",
"U. c #704B49",
"Y. c #704B4B",
"T. c #704C48",
"R. c #704C49",
"E. c #714C49",
"W. c #714D49",
"Q. c #724D49",
"!. c #714C4A",
"~. c #724D4A",
"^. c #734D4A",
"/. c #724D4B",
"(. c #734E4A",
"). c #734E4B",
"_. c #744E4B",
"`. c #724C4D",
"'. c #724D4D",
"]. c #734D4D",
"[. c #734E4C",
"{. c #724D4E",
"}. c #744E4C",
"|. c #744F4C",
" X c #754F4C",
".X c #764F4C",
"XX c #744E4E",
"oX c #754F4E",
"OX c #754E4F",
"+X c #754F4F",
"@X c #76504D",
"#X c #77504D",
"$X c #77514D",
"%X c #76504E",
"&X c #77514E",
"*X c #77504F",
"=X c #77514F",
"-X c #78514D",
";X c #79524E",
":X c #79524F",
/* pixels */
"o.o.o.o.o... .| [ [ [ [ [ [ [ [ [ [ [ [ [ [ [ [ [ [ [ [ [ [ [ [ [ [ [ [ [ [ [ [ [ [ |  ...o.o.o.o.o.",
"o.o.o.o.o.O.+.@.#.#.#.#.#.#.#.#.#.#.#.#.#.#.#.#.#.#.#.#.#.#.#.#.#.#.#.#.#.#.#.#.#.#.@.+.O.o.o.o.o.o.",
"o.o.o. .o.$.;.5.w.w.w.w.w.w.w.w.w.w.w.w.w.w.w.w.w.w.w.w.w.w.w.w.w.w.w.w.w.w.w.w.w.w.7.;.$.o. .o.o.o.",
"o.o. .| ..=.e.z.M.N.b.b.b.b.b.b.b.b.b.b.b.b.b.b.b.b.b.b.b.b.b.b.b.b.b.b.b.b.b.b.N.M.x.e.=...|  .o.o.",
"o.o.o...#.9.x.P.OXoXXXXXXXXXXXXXXXXXXXXXXXXXXXXXXXXXXXXXXXXXXXXXXXXXXXXXXXXXXXXXoXOXP.z.5.#...o.o.o.",
"..O.$.=.9.s.V.+X:X;X&X#X@X#X#X#X#X#X#X#X#X#X#X#X#X#X#X#X#X#X#X#X#X#X#X#X#X#X#X#X-X$X].B.u.9.=.$.O...",
" .+.;.e.x.V.{.*X;X$X|.).).).).).).).).).).).).).).).).).).).).).).).).).).).)._._._./.L.B.x.r.;.+. .",
"| @.5.z.P.+X*X=X%X[.!.J.J.J.J.J.J.J.J.J.J.J.J.J.J.J.J.J.J.J.J.J.J.J.J.J.J.J.J.J.J.J.U./.].P.z.7.@.| ",
"[ #.w.M.OX:X;X%X}.!.J.F.D.F.F.F.F.F.F.F.F.F.F.F.F.F.F.F.F.F.F.F.F.F.F.F.F.F.F.F.D.D.J.^..X].v.q.#.[ ",
"[ #.w.N.+X:X$X[.!.U.G.D.D.D.D.D.D.D.D.D.D.D.D.D.D.D.D.D.D.D.D.D.D.D.D.D.D.D.D.D.D.D.G.W.(.Y.k.8.@.| ",
"[ #.w.b.XX&X|.!.J.G.F.F.F.F.F.F.F.F.F.F.F.F.F.F.F.F.F.F.F.F.F.F.F.F.F.F.F.F.F.F.F.F.F.I.R.S.g.2.@.| ",
"[ #.q.v.'. X^.J.F.D.F.F.F.F.F.F.F.F.F.F.F.F.F.F.F.F.F.F.F.F.F.F.F.F.F.F.F.F.F.F.F.F.F.H.G.m.p.1.@.| ",
"| @.8.j.K.~.E.G.D.D.F.F.F.F.F.F.F.F.F.F.F.F.F.F.F.F.F.F.F.F.F.F.F.F.F.F.F.F.F.F.F.F.F.H.G.m.p.1.@.| ",
"| @.2.g.S.R.I.F.F.F.F.F.F.F.F.F.F.F.F.F.F.F.F.F.F.F.F.F.F.F.F.F.F.F.F.F.F.F.F.F.F.F.F.H.G.C.p.1.@.| ",
"| @.2.g.S.R.I.G.F.F.F.F.F.F.F.F.F.F.F.F.F.F.F.F.F.F.F.F.F.F.F.F.F.F.F.F.F.F.F.F.F.F.F.H.H.C.d.1.@.| ",
"| @.8.h.Y.(.Q.I.H.H.H.H.H.H.H.H.H.H.H.H.H.H.H.H.H.H.H.H.H.H.H.H.H.H.H.H.H.H.H.H.H.H.H.T.T.A.d.2.@.| ",
"[ #.q.v.'..X(.I.G.G.G.G.G.G.G.G.G.G.G.G.G.G.G.G.G.G.G.G.G.G.G.G.G.G.G.G.G.G.G.G.G.G.G.I.H.C.d.2.@.| ",
"| #.9.x.P.`.K.Z.n.n.n.n.n.n.n.n.n.n.n.n.n.n.n.n.n.n.n.n.n.n.n.n.n.n.n.n.n.n.n.n.n.n.n.C.m.l.t.,.@. .",
" .%.3.i.c.v.j.f.a.a.a.a.a.a.a.a.a.a.a.a.a.a.a.a.a.a.a.a.a.a.a.a.a.a.a.a.a.a.a.a.a.a.a.f.f.y.0.-.+...",
"o.+.*.:.6.9.4.<.<.<.<.<.<.<.<.<.<.<.<.<.<.<.<.<.<.<.<.<.<.<.<.<.<.<.<.<.<.<.<.<.<.<.<.<.<.>.&.$.+.o.",
"{ { { } X.X.X.X.X.X.X.X.X.X.X.X.X.X.X.X.X.X.X.X.X.X.X.X.X.X.X.X.X.X.X.X.X.X.X.X.X.X.X.X.X.X.} { { { ",
"' ` ` _ ) ) ) ] ] ] ] ] ] ] ] ] ] ] ] ] ] ] ] ] ] ] ] ] ] ] ] ] ] ] ] ] ] ] ] ] ] ] ] ] ] ] ] ` ' ' ",
"/ / / ^ ^ ^ ( ( ( ( ( ( ( ( ( ( ( ( ( ( ( ( ( ( ( ( ( ( ( ( ( ( ( ( ( ( ( ( ( ( ( ( ( ( ( ( ( / / / ",
"E E E E E T Y I P P P P P P P P P P P P P P P P P P P P P P P P P P P P P P P P P P P P P I Y T E E ",
"U U T T T K C n c c v v v v v v v v v v v v v v v v v c x x x c v v v v v v v v v v v c c b C G I T ",
"U Y T W T S z y 9 8 0 q q q q q q q q q q q q q q q 0 9 8 8 8 8 0 q q q q q q q q q 0 8 8 t j C P R ",
"T T T T L N u < % $ & & & & & & & & & & & & & & & & & * = - = = & & & & & & & & & & & $ $ > u N P Q ",
"T Y L S M d 6 % X . X X X X X X X X X X X X X X X X O % , 4 2 = + X X X X X X X X X X . . & r M I ! ",
"W I A x u 5 ; @ X X o o o o o o o o o o o o o o X . + < t f i 5 % X . X o o o o o o o . . & t N Y ~ ",
"Q P B i < $ @ + + + + + + + + + + + + + + + + + o X $ 7 l Z m y - O X + + + + + + + + X o = r m K R ",
"! I M r & . . O O O O O O O O O O O O O O O + + o . $ 9 b J Z i - X . o O O O O O O O X o & 7 f m V ",
"~ Y N t & .   X X X X X X X X X X X X X X o O + X . @ 8 m L Z i = .   X X X X X X X X X O $ > 7 e y ",
"W P m t = o o + @ @ @ @ @ @ @ @ @ @ @ @ @ + + + O o % 0 v G V i : + O + @ @ @ @ @ @ @ + + @ % = ; : ",
"Z N h 8 * $ - 2 4 4 4 4 4 4 4 4 4 4 4 4 2 : % # % ; 4 y l M v a 8 3 2 3 4 4 4 4 4 4 2 ; % # * > 2 3 ",
"i y 8 > % : q d k l j j j j j j j j l l f w > & < t g h d p s f h j j j j j j j l k d q : & 1 t f j ",
", : = # $ 3 s B F G D D D D D D D D G G C d 3 = 6 j V v y 4 9 g V F G D D D D D G F B a 1 = 8 k Z G ",
"1 < - $ $ 2 s N S D A A A A A A A A D S V d 3 = 6 h N l 8 = < i N S D A A A A A D S N i 1 = 8 j C G ",
"f a w < % ; 8 p g h g g g g g g g g g g s q : % < e a r < $ = 7 p g h g g g g g h g p 8 ; & 1 r d h ",
"F C k 9 * # * , 1 1 1 1 1 1 1 1 1 1 1 1 < - % @ % ; , : & @ $ = , 1 1 1 1 1 1 1 1 1 , - $ # & : < 2 ",
"H Z z q * o o + + + + + + + + + + + + + + + + + + + + + + + + + + + + + + + + + + + + + + + + + + + ",
"z g u 4 % o X X X X X X X X X X X X X X X o O + O o X o O + + O X X X X X X X X X X X O + + O o X X ",
"4 3 , = @ O O O O O O O O O O O O O O O O + + + + + O O + + + + O O O O O O O O O O O + + + + + O O ",
"@ @ @ + + + + + + + + + + + + + + + + + + + + + + + + + + + + + + + + + + + + + + + + + + + + + + + ",
"X X o O + + + + + + + + + + + + + + + + + + + + + + + + + + + + + + + + + + + + + + + + + + + + + + ",
"O O O + + + + + + + + + + + + + + + + + + + + + + + + + + + + + + + + + + + + + + + + + + + + + + + ",
"+ + + + + + + + + + + + + + + + + + + + + + + + + + + + + + + + + + + + + + + + + + + + + + + + + + ",
"+ + + + + + + + + + + + + + + + + + + + + + + + + + + + + + + + + + + + + + + + + + + + + + + + + + ",
"+ + + + + + + + + + + + + + + + + + + + + + + + + + + + + + + + + + + + + + + + + + + + + + + + + + ",
"+ + + + + + + + + + + + + + + + + + + + + + + + + + + + + + + + + + + + + + + + + + + + + + + + + + ",
"+ + + + + + + + + + + + + + + + + + + + + + + + + + + + + + + + + + + + + + + + + + + + + + + + + + "
};
