/* XPM */
static char *anlin_yniuf[] = {
/* columns rows colors chars-per-pixel */
"50 50 158 2 ",
"   c None",
".  c #1B060C",
"X  c #1C080E",
"o  c #1C0C15",
"O  c #210F16",
"+  c #280E11",
"@  c #200F18",
"#  c #231017",
"$  c #25131A",
"%  c #28171E",
"&  c #2A1013",
"*  c #31191C",
"=  c #2C1D25",
"-  c #2F2027",
";  c #3E2121",
":  c #33252D",
">  c #362931",
",  c #392D35",
"<  c #3B2F38",
"1  c #3D323A",
"2  c #49241E",
"3  c #402322",
"4  c #593129",
"5  c #41353D",
"6  c #49393E",
"7  c #613327",
"8  c #6E3B2D",
"9  c #623429",
"0  c #723E2F",
"q  c #443A43",
"w  c #484048",
"e  c #4E4750",
"r  c #4F4852",
"t  c #534E57",
"y  c #534E58",
"u  c #56525B",
"i  c #59555E",
"p  c #6B4B46",
"a  c #70514C",
"s  c #5D5B65",
"d  c #615E67",
"f  c #615F69",
"g  c #63626C",
"h  c #6B676F",
"j  c #656671",
"k  c #696771",
"l  c #6A6A74",
"z  c #6D6E78",
"x  c #6F717B",
"c  c #70737D",
"v  c #834B37",
"b  c #9E5B40",
"n  c #996857",
"m  c #A86144",
"M  c #B7795E",
"N  c #877A7C",
"B  c #BA7D63",
"V  c #C68365",
"C  c #737681",
"Z  c #757A85",
"A  c #787881",
"S  c #797E89",
"D  c #7A818D",
"F  c #7E8591",
"G  c #7D8C9B",
"H  c #5AA7D2",
"J  c #5DA9D3",
"K  c #63ABD4",
"L  c #6BAED4",
"P  c #6CB0D6",
"I  c #74B1D4",
"U  c #79B4D5",
"Y  c #74B5D9",
"T  c #7BBADC",
"R  c #828792",
"E  c #838994",
"W  c #848E9A",
"Q  c #968E90",
"!  c #85919D",
"~  c #A38A84",
"^  c #B9978A",
"/  c #B39E97",
"(  c #8A95A2",
")  c #8E99A5",
"_  c #919DA9",
"`  c #919BA7",
"'  c #94A1AD",
"]  c #95A4B1",
"[  c #96A9B7",
"{  c #9AA8B5",
"}  c #9DADBA",
"|  c #98A5B1",
" . c #A0AEBB",
".. c #A6ABB2",
"X. c #B8B7BA",
"o. c #CBA898",
"O. c #C6A496",
"+. c #98B8CC",
"@. c #91B1C5",
"#. c #8BB7D1",
"$. c #86B8D5",
"%. c #8DBCD7",
"&. c #81BCDD",
"*. c #9CBED3",
"=. c #92BFD9",
"-. c #A4B6C3",
";. c #A6B9C6",
":. c #A3BCCD",
">. c #A9BCC9",
",. c #A4BFD0",
"<. c #88C0DE",
"1. c #9CC2D9",
"2. c #96C1DA",
"3. c #AEC1CE",
"4. c #A6C2D2",
"5. c #ABC3D2",
"6. c #A9C7DA",
"7. c #ACCBDD",
"8. c #B1C7D5",
"9. c #B4CDDC",
"0. c #B9CCD8",
"q. c #BAD1DF",
"w. c #84C0E2",
"e. c #8FC4E0",
"r. c #92C6E1",
"t. c #9BCAE3",
"y. c #98CBE5",
"u. c #A3CEE5",
"i. c #AACFE2",
"p. c #A1CFE8",
"a. c #B2CFE1",
"s. c #A6D1E6",
"d. c #A9D2E6",
"f. c #AAD4EA",
"g. c #AFD8EB",
"h. c #A1D2EC",
"j. c #BCD6E5",
"k. c #B1D7EA",
"l. c #B4DBEE",
"z. c #BADBED",
"x. c #B6D2E3",
"c. c #A5D6F0",
"v. c #BDDEF0",
"b. c #B4DCF0",
"n. c #BDE1F4",
"m. c #C4C6C9",
"M. c #C5CCD2",
"N. c #C0D9E7",
"B. c #C3DDEC",
"V. c #C6E0EF",
"C. c #C6E4F4",
"Z. c #C8E6F6",
"A. c #CBE8F7",
"S. c #C4E6F8",
"D. c #C5E9FB",
"F. c #CAEAFA",
"G. c #D0ECFB",
"H. c #D1F1FF",
/* pixels */
"                                                                                                    ",
"                                                                                                    ",
"                                                                                                    ",
"                                                                                                    ",
"                                                                                                    ",
"                                                                                                    ",
"                                                                                                    ",
"                                                                                                    ",
"                                                                                                    ",
"                                              o o o o                                               ",
"                                            $ $ $ $ $ $                                             ",
"                                            ; 3 3 3 3 ;                                             ",
"                                    o   + 2 7 8 0 0 8 9 2 &   o                                     ",
"                                $ $ @ @ * 4 v b m m b v 4 * @ @ $ $                                 ",
"                                $ % = > 6 a n B V V M n p 5 : = % $                                 ",
"                                # = q s A Q / O.o.O.^ ~ N h y 1 = $                                 ",
"                                @ : i W ;.0.M.M.m.X.X.....` Z r : #                                 ",
"                                @ > g _ 8.N.B.B.j.0.3.>.-.{ F u : @                                 ",
"                                  > i Z ( } 5.j.j.9.5.} ( S j r :                                   ",
"                                    1 q u C | 5.q.9.>.) z r 1 >                                     ",
"                                      : q g ( >.0.9.>.( g q :                                       ",
"                                    q t g D ] 4.7.9.5.[ F h u q                                     ",
"                                . : i R | -.4.6.i.i.7.4.;.{ R i : .                                 ",
"                                = q z } j.z.k.d.u.u.u.f.l.x.[ z q =                                 ",
"                              q t j ! 5.n.n.l.d.t.y.r.y.c.f.+.G j t q                               ",
"                          # < s F ] :.i.l.b.g.s.t.<.T T w.w.%.@.] R d < #                           ",
"                          # 1 z } j.z.k.d.d.s.u.e.T P K K P &.u.a.} z 1 #                           ",
"                        . # 1 c >.Z.D.l.s.t.t.r.&.Y K J H K T h.z.-.z 1 # .                         ",
"                        . # 1 c >.Z.D.l.u.r.<.T Y L K J H J Y t.7.{ l < # .                         ",
"                        . # 1 x -.C.Z.l.u.e.T P K K K K K K U 2.,._ g < # .                         ",
"                        . # 1 x ;.C.F.n.f.r.Y K J J K K L I $.1.:.` g < # X                         ",
"                        . # 1 x >.F.H.Z.l.y.T K H J K L U #.*.6.5._ g < # X                         ",
"                          # 1 z -.V.G.A.v.u.T K J J K I #.*.5.5.>.) f < #                           ",
"                          # 1 h ) >.q.B.C.g.e.U L P I $.*.5.>. ._ D i > #                           ",
"                            < r g S | q.Z.n.u.2.%.%.=.1.6.5. .E l i w :                             ",
"                              : < e Z ;.B.B.9.,.:.:.,.5.5.>.) l q > =                               ",
"                                o > g ) ;.;.} ' ' ' ' ] | _ D u : @                                 ",
"                                  = r l C c z l k l l l l j s q =                                   ",
"                                    < 5 q 5 1 1 1 1 1 1 1 1 < >                                     ",
"                                      $ $ $ $ $ $ $ $ $ $ $ $                                       ",
"                                        . . . X X X X X X X                                         ",
"                                                                                                    ",
"                                                                                                    ",
"                                                                                                    ",
"                                                                                                    ",
"                                                                                                    ",
"                                                                                                    ",
"                                                                                                    ",
"                                                                                                    ",
"                                                                                                    "
};
