/* XPM */
static char *agcfk_wafw0[] = {
/* columns rows colors chars-per-pixel */
"50 50 163 2 ",
"   c None",
".  c #1A060C",
"X  c #1D080F",
"o  c #1D0D16",
"O  c #220F16",
"+  c #280E11",
"@  c #231017",
"#  c #25131A",
"$  c #2B161C",
"%  c #2A1013",
"&  c #30171B",
"*  c #2B1B23",
"=  c #3A1F20",
"-  c #2E2129",
";  c #3C2021",
":  c #33252C",
">  c #352830",
",  c #392D35",
"<  c #392F38",
"1  c #3E333B",
"2  c #48231F",
"3  c #46211D",
"4  c #572F28",
"5  c #562E27",
"6  c #5D3228",
"7  c #5C3026",
"8  c #412F33",
"9  c #42363D",
"0  c #67372B",
"q  c #6A3A2C",
"w  c #7F4835",
"e  c #7F4734",
"r  c #413740",
"t  c #433942",
"y  c #4A434C",
"u  c #4D4750",
"i  c #4E4851",
"p  c #524C55",
"a  c #56535C",
"s  c #58535C",
"d  c #684741",
"f  c #6C4C46",
"g  c #5D5A63",
"h  c #5C5B65",
"j  c #605E67",
"k  c #605E68",
"l  c #63616B",
"z  c #6A6B75",
"x  c #6E6F79",
"c  c #666670",
"v  c #6F717B",
"b  c #70727C",
"n  c #98573D",
"m  c #A25D41",
"M  c #95614F",
"N  c #996654",
"B  c #B8795E",
"V  c #B5755A",
"C  c #837475",
"Z  c #C37E5F",
"A  c #A2867D",
"S  c #C58061",
"D  c #767D88",
"F  c #797F8A",
"G  c #747680",
"H  c #7B808B",
"J  c #7E8591",
"K  c #7A8896",
"L  c #5AA7D2",
"P  c #5DA9D3",
"I  c #63ACD4",
"U  c #6BAED4",
"Y  c #6DB1D7",
"T  c #74B1D4",
"R  c #79B3D5",
"E  c #75B6DA",
"W  c #7DBBDD",
"Q  c #918586",
"!  c #888F9B",
"~  c #818A96",
"^  c #B0978F",
"/  c #BA9384",
"(  c #8B95A1",
")  c #8E9BA8",
"_  c #8F9AA6",
"`  c #909BA7",
"'  c #929EAA",
"]  c #99A2AC",
"[  c #94A4B1",
"{  c #98A6B3",
"}  c #9BA9B6",
"|  c #9CABB8",
" . c #9DB0BF",
".. c #AAA9AE",
"X. c #A1AFBB",
"o. c #B4AFB1",
"O. c #A3B1BD",
"+. c #BEB9BA",
"@. c #C79E8C",
"#. c #C8A292",
"$. c #8FACC0",
"%. c #9FB4C2",
"&. c #99B7CA",
"*. c #83B7D5",
"=. c #89B6D1",
"-. c #8BBBD6",
";. c #83BDDD",
":. c #8FBDD9",
">. c #9CBDD2",
",. c #A4B5C2",
"<. c #A7B8C5",
"1. c #A6BDCC",
"2. c #A9BDCA",
"3. c #A2BFD1",
"4. c #8AC1DF",
"5. c #9AC1D9",
"6. c #96C1DB",
"7. c #ADC1CE",
"8. c #B7C3CC",
"9. c #A6C1D2",
"0. c #ABC3D3",
"q. c #A8C7DA",
"w. c #ADCCDD",
"e. c #A7C9DB",
"r. c #B1C7D6",
"t. c #B7CAD7",
"y. c #B3CCDB",
"u. c #B7D1DF",
"i. c #BBD1DF",
"p. c #88C3E4",
"a. c #92C5E0",
"s. c #96C8E3",
"d. c #9CCBE3",
"f. c #9DCFE9",
"g. c #A3CEE5",
"h. c #ABCFE1",
"j. c #B0CEE0",
"k. c #A6D1E6",
"l. c #A9D2E7",
"z. c #ABD4EA",
"x. c #A1D2ED",
"c. c #B5D0E0",
"v. c #BBD4E3",
"b. c #B1D6E9",
"n. c #B4DAED",
"m. c #BAD9EA",
"M. c #A9D8F1",
"N. c #BBDEF0",
"B. c #B6DDF1",
"V. c #BEE1F4",
"C. c #C5C8CC",
"Z. c #C5C3C4",
"A. c #C4DDEB",
"S. c #C0D6E3",
"D. c #C1DFF0",
"F. c #C7E1EF",
"G. c #C5E3F3",
"H. c #C8E6F6",
"J. c #C5E9FB",
"K. c #CAE9F9",
"L. c #C4E6F8",
"P. c #D1EEFD",
"I. c #D0F0FF",
/* pixels */
"                                                                                                    ",
"                                                                                                    ",
"                                                                                                    ",
"                                                                                                    ",
"                                                                                                    ",
"                                                                                                    ",
"                                                                                                    ",
"                                                                                                    ",
"                                                                                                    ",
"                                                                                                    ",
"                                                                                                    ",
"                                                                                                    ",
"                                                o o                                                 ",
"                                            # # # # # #                                             ",
"                                            = ; ; ; ; =                                             ",
"                                        + 3 7 0 0 0 0 6 2 %                                         ",
"                                # # o o $ 5 e n m m n w 4 & o o # #                                 ",
"                                # # * : 9 f N B Z Z V M d 8 - * # #                                 ",
"                                # * 1 s b Q ^ #.#.@./ A C l i < * #                                 ",
"                                O : a ~ O.8.C.C.Z.+.o...] ( b u : @                                 ",
"                                O , l ' t.A.A.A.S.t.7.2.<.} J s : O                                 ",
"                                  , g H ' ,.y.m.m.y.0. .) J z p :                                   ",
"                                    9 y g D } r.c.y.2.) v p t <                                     ",
"                                      : t l ( 2.y.y.2.( l 9 :                                       ",
"                                    1 u h D [ 9.y.y.9.[ F j p 9                                     ",
"                                  : a F '  .3.e.h.h.w.9.%.] H s :                                   ",
"                                * 1 z } c.m.b.l.g.g.g.z.m.c.} z 1 *                                 ",
"                              9 u l ~ 2.V.V.n.l.g.s.s.f.M.z.&.K h u t                               ",
"                          @ < g H ) %.w.n.B.n.k.s.4.W W p.p.-.$.) H g < @                           ",
"                          @ 1 z | u.m.b.l.l.l.g.a.W Y I I Y ;.d.w.| z 1 @                           ",
"                        . @ 1 b 2.H.J.n.k.g.s.a.;.E I P L I W x.m.,.x 1 # .                         ",
"                        . @ 1 b 2.H.J.n.g.s.4.W E U I P L P E d.j.| z < # .                         ",
"                        . @ 1 v <.G.H.n.g.a.W Y I I I I I I R 6.9.' l < # .                         ",
"                        . @ 1 v <.G.K.N.l.a.E I P P I I U T *.5.1.` l < # X                         ",
"                        . @ 1 b 2.K.I.H.n.s.E I L L I U R =.>.q.9.' l < # X                         ",
"                          @ 1 v <.G.P.K.N.g.W I P P I T =.>.9.0.2._ l < #                           ",
"                          @ 1 c ' 0.m.F.G.z.p.T U U T *.>.9.2.,.[ J g , #                           ",
"                            < p z J | i.H.V.g.:.-.-.:.5.q.0.X.! v h y >                             ",
"                              : 1 p H 2.A.D.j.9.>.>.3.9.0.2.' z y < :                               ",
"                                O < l ' 2.7.,.} [ { { } | [ J s : O                                 ",
"                                  * p x F F G b x x x v v x k y *                                   ",
"                                    1 t t t t t t t t t t r 1 <                                     ",
"                                      $ $ # # # # # # # # # #                                       ",
"                                        . X X X X X X X X X                                         ",
"                                                                                                    ",
"                                                                                                    ",
"                                                                                                    ",
"                                                                                                    ",
"                                                                                                    ",
"                                                                                                    "
};
