/* XPM */
static char *a31qf_cn870[] = {
/* columns rows colors chars-per-pixel */
"50 50 155 2 ",
"   c None",
".  c #1A060C",
"X  c #1D080F",
"o  c #1E0A12",
"O  c #210E15",
"+  c #231017",
"@  c #241219",
"#  c #2E1518",
"$  c #361D1F",
"%  c #271821",
"&  c #2A1A21",
"*  c #2D1F28",
"=  c #371E20",
"-  c #2F2027",
";  c #32242B",
":  c #3E2A2E",
">  c #362A32",
",  c #3A2D35",
"<  c #3D323A",
"1  c #45211D",
"2  c #552D25",
"3  c #582E26",
"4  c #402E32",
"5  c #40363E",
"6  c #63352A",
"7  c #65423C",
"8  c #7B4432",
"9  c #463C45",
"0  c #483E47",
"q  c #4A424B",
"w  c #4E4851",
"e  c #524D56",
"r  c #544F58",
"t  c #56525C",
"y  c #58555E",
"u  c #684640",
"i  c #5B5760",
"p  c #5B5963",
"a  c #605960",
"s  c #605F6A",
"d  c #63616B",
"f  c #6B676F",
"g  c #7F6E6D",
"h  c #666771",
"j  c #6A6A73",
"k  c #6E6F79",
"l  c #6F717B",
"z  c #70737D",
"x  c #93533B",
"c  c #9C583E",
"v  c #935E4B",
"b  c #96614F",
"n  c #B47357",
"m  c #8C7D7D",
"M  c #C27B5B",
"N  c #A18177",
"B  c #BA907F",
"V  c #737681",
"C  c #757983",
"Z  c #797C87",
"A  c #7C838F",
"S  c #7D8692",
"D  c #5AA7D2",
"F  c #5DA9D3",
"G  c #63ACD4",
"H  c #69AED4",
"J  c #70AFD3",
"K  c #6CB1D7",
"L  c #73B1D4",
"P  c #78B5D7",
"I  c #74B5D9",
"U  c #77B8DC",
"Y  c #7DBADC",
"T  c #808792",
"R  c #818995",
"E  c #848D98",
"W  c #8A929D",
"Q  c #AD9087",
"!  c #8A95A1",
"~  c #8995A2",
"^  c #909BA7",
"/  c #929EAB",
"(  c #9C9FA6",
")  c #93A1AD",
"_  c #8CA8BB",
"`  c #96A4B1",
"'  c #9AA7B4",
"]  c #9BA9B5",
"[  c #9CACBA",
"{  c #97AAB8",
"}  c #9CB0BE",
"|  c #A9A5A8",
" . c #B5ACAC",
".. c #A2B1BE",
"X. c #BFB6B4",
"o. c #C79A86",
"O. c #C89E8B",
"+. c #C6BFBE",
"@. c #9AB6C8",
"#. c #82B6D4",
"$. c #85B9D7",
"%. c #83BDDD",
"&. c #8ABAD6",
"*. c #94BCD4",
"=. c #9DBDD2",
"-. c #A4B5C2",
";. c #A6B8C5",
":. c #A9BAC7",
">. c #A5BDCC",
",. c #AABDCB",
"<. c #B3BCC5",
"1. c #A7BFD0",
"2. c #8BC1DF",
"3. c #96C1DA",
"4. c #99C1D8",
"5. c #ACC0CE",
"6. c #A4C2D4",
"7. c #ACC3D2",
"8. c #A6C6DA",
"9. c #A7C8DA",
"0. c #ACCADA",
"q. c #ACC7D8",
"w. c #B1C6D4",
"e. c #B5C9D5",
"r. c #B4CCDC",
"t. c #87C3E4",
"y. c #91C6E1",
"u. c #96C8E2",
"i. c #9CCBE4",
"p. c #A3CEE4",
"a. c #ADCFE1",
"s. c #A7D1E7",
"d. c #ABD2E6",
"f. c #A1D1EB",
"g. c #ABD4EA",
"h. c #B4D3E4",
"j. c #BBD3E1",
"k. c #B2D6E9",
"l. c #B8D7E8",
"z. c #B4DBEE",
"x. c #BCD9E9",
"c. c #ACDAF2",
"v. c #B7DFF2",
"b. c #BADEF1",
"n. c #BFE2F4",
"m. c #C4C3C5",
"M. c #C4DCE9",
"N. c #C0D4E0",
"B. c #C4E2F2",
"V. c #C8E5F4",
"C. c #C4E7F9",
"Z. c #C6E9FA",
"A. c #CBE8F8",
"S. c #D1EFFE",
"D. c #CFF0FF",
/* pixels */
"                                                                                                    ",
"                                                                                                    ",
"                                                                                                    ",
"                                                                                                    ",
"                                                                                                    ",
"                                                                                                    ",
"                                                                                                    ",
"                                                                                                    ",
"                                                                                                    ",
"                                                                                                    ",
"                                                                                                    ",
"                                                                                                    ",
"                                                                                                    ",
"                                                                                                    ",
"                                                                                                    ",
"                                                                                                    ",
"                                            + + + + + +                                             ",
"                                            $ $ = = = $                                             ",
"                                          1 3 6 6 6 6 3 1                                           ",
"                                @ @ o o # 2 8 x c c x 8 2 # o o @ @                                 ",
"                                @ @ % - 4 u b n M M n v 7 : * % @ @                                 ",
"                                @ & < e f m Q O.O.o.B N g a q , & @                                 ",
"                                + ; r A ] <.m.m.+.X. .| ( W k q ; +                                 ",
"                                O > d ) r.M.M.M.N.e.,.:.;.[ S t ; O                                 ",
"                                O > p S ` ,.r.x.x.r.7.-.) E l e ; O                                 ",
"                                    9 e d A [ e.j.r.,./ V y q <                                     ",
"                                      ; 9 d ! ,.r.r.:.! s 5 ;                                       ",
"                                    < q y V ) >.r.r.7.` C i q <                                     ",
"                                  - r C ! { >.0.a.a.0.>.[ ~ C r ;                                   ",
"                                @ < h ` r.l.k.s.p.p.p.d.l.r.` h < @                                 ",
"                              < q p S >.n.C.z.s.p.u.u.f.c.g.@.S p q <                               ",
"                            , y C ! } 0.z.v.z.s.u.2.%.t.t.y.*._ ~ C i ,                             ",
"                          + < j ' e.l.k.g.g.s.p.y.Y K H K I %.i.q.' j < +                           ",
"                        . + < z :.V.C.z.s.p.i.u.%.I G F D G Y f.l.-.k < + .                         ",
"                        . + < z ,.V.Z.z.p.u.2.%.U K G F D F U i.h.[ j , + .                         ",
"                        . + < l ;.B.C.z.p.y.Y K G G G G F G P 3.6.) d , + .                         ",
"                        . + < l ;.B.A.v.s.y.U G F F G G H J #.4.>.^ d , + X                         ",
"                        . + < z :.A.D.C.z.u.U G D D G H L #.*.8.7./ d , + X                         ",
"                        . + < l ;.V.S.A.v.i.Y G F F G L #.=.6.q.5.^ d , + X                         ",
"                          + < h ) e.M.V.B.g.2.L H H L #.*.>.,.;.] R p , +                           ",
"                            , t l E ..j.V.v.i.&.$.$.&.3.8.7...W C d q >                             ",
"                              , 9 t S ,.B.B.a.6.=.=.6.6.q.5./ l w < >                               ",
"                                @ , h ) w.w.;.[ [ [ [ [ ..] R i > @                                 ",
"                                  & r V T T Z C V V V C C z d q &                                   ",
"                                    5 q q q q 0 0 0 0 0 0 0 9 ,                                     ",
"                                      & & & & # & & & & & & &                                       ",
"                                        X X X X o o o o o o                                         ",
"                                                                                                    ",
"                                                                                                    ",
"                                                                                                    "
};
