/* XPM */
static char *xpm_________________________________resized[] = {
/* columns rows colors chars-per-pixel */
"50 50 152 2 ",
"   c #492D48",
".  c #4A2D49",
"X  c #4B2E48",
"o  c #4A2E49",
"O  c #4B2E49",
"+  c #4C2F49",
"@  c #4D2F49",
"#  c #4D3049",
"$  c #4E3049",
"%  c #4E3149",
"&  c #4F3149",
"*  c #503249",
"=  c #513349",
"-  c #50324A",
";  c #51334A",
":  c #52344A",
">  c #53344A",
",  c #53354A",
"<  c #553648",
"1  c #553649",
"2  c #553749",
"3  c #563749",
"4  c #573749",
"5  c #54354A",
"6  c #55364A",
"7  c #55364B",
"8  c #56374A",
"9  c #57374A",
"0  c #57374B",
"q  c #57384A",
"w  c #583849",
"e  c #58384A",
"r  c #59394A",
"t  c #58384B",
"y  c #59394B",
"u  c #5A394B",
"i  c #5A3A4B",
"p  c #5B3B4B",
"a  c #5C3B4B",
"s  c #5F3D4B",
"d  c #5D3C4C",
"f  c #5F3E4C",
"g  c #603F48",
"h  c #613F48",
"j  c #603E4C",
"k  c #613F4C",
"l  c #6A4747",
"z  c #6D4947",
"x  c #6E4A47",
"c  c #614048",
"v  c #614049",
"b  c #624149",
"n  c #634149",
"m  c #62414A",
"M  c #63414A",
"N  c #64414A",
"B  c #65434A",
"V  c #64424B",
"C  c #65424B",
"Z  c #65434B",
"A  c #66434B",
"S  c #61404C",
"D  c #63404C",
"F  c #63414C",
"G  c #63414D",
"H  c #64414D",
"J  c #65424C",
"K  c #65434C",
"L  c #66434C",
"P  c #66434D",
"I  c #66444C",
"U  c #6B4748",
"Y  c #68444C",
"T  c #69454D",
"R  c #6A454D",
"E  c #6B474C",
"W  c #6A464E",
"Q  c #6B4848",
"!  c #6C4848",
"~  c #6D4949",
"^  c #6E4948",
"/  c #6E4A48",
"(  c #6F4A48",
")  c #6F4B48",
"_  c #6E4A49",
"`  c #6F4B49",
"'  c #6D494A",
"]  c #6E494A",
"[  c #6D4A4A",
"{  c #6F4A4B",
"}  c #6B484D",
"|  c #6C484D",
" . c #6D484D",
".. c #6F4B4C",
"X. c #6F4A4D",
"o. c #6D484E",
"O. c #6F494E",
"+. c #6F4A4E",
"@. c #704B48",
"#. c #704B49",
"$. c #704C48",
"%. c #714C48",
"&. c #704C49",
"*. c #714C49",
"=. c #714D49",
"-. c #724D48",
";. c #724D49",
":. c #714C4A",
">. c #714D4A",
",. c #714C4B",
"<. c #724D4A",
"1. c #724D4B",
"2. c #734E4A",
"3. c #734E4B",
"4. c #744E4A",
"5. c #744E4B",
"6. c #754E4B",
"7. c #754F4B",
"8. c #714B4C",
"9. c #704B4E",
"0. c #704A4F",
"q. c #704C4C",
"w. c #714C4C",
"e. c #704C4D",
"r. c #714D4D",
"t. c #724C4C",
"y. c #734E4C",
"u. c #724C4E",
"i. c #724D4E",
"p. c #734D4E",
"a. c #734D4F",
"s. c #744E4C",
"d. c #744F4C",
"f. c #754F4C",
"g. c #744E4D",
"h. c #754F4D",
"j. c #764F4C",
"k. c #744E4E",
"l. c #754E4E",
"z. c #754E4F",
"x. c #774F4E",
"c. c #764F4F",
"v. c #77504D",
"b. c #77504E",
"n. c #77504F",
"m. c #78514D",
"M. c #78514E",
"N. c #78504F",
"B. c #78514F",
"V. c #79514F",
"C. c #7A524E",
"Z. c #7A524F",
/* pixels */
"+ + + + + + O o o o o o o o o o o o o o o o o o o o o o o o o o o o o o o o o o . o o O + + + + + + ",
"+ + + + + @ # $ $ $ $ $ $ $ $ $ $ $ $ $ $ $ $ $ $ $ $ $ $ $ $ $ $ $ $ $ $ $ $ $ $ $ $ # @ + + + + + ",
"+ + O X O # ; 6 9 0 0 0 0 0 0 0 0 0 0 0 0 0 0 0 0 0 0 0 0 0 0 0 0 0 0 0 0 0 0 0 0 0 7 ; # O X O + + ",
"+ + X     & q f D H G G G G G G G G G G G G G G G G G G G G G G G G G G G G G G H H j t &     X + + ",
"+ + X   X : s R O.+.O.O.O.O.O.O.O.O.O.O.O.O.O.O.O.O.O.O.O.O.O.O.O.O.O.O.O.O.O.O.0.+.W f > X   X + + ",
"+ + @ $ = i L 9.z.l.k.p.p.p.p.p.p.p.p.p.p.p.p.p.p.p.p.p.p.p.p.p.p.p.p.p.p.p.p.p.k.k.X.J i ; $ # + + ",
"O # * 6 p F o.z.B.b.h.s.s.s.s.s.s.s.s.s.s.s.s.s.s.s.s.s.s.s.s.s.s.s.s.s.s.s.s.s.f.d.w.E F a 7 - # O ",
"O # , a K  .a.N.V.v.5.3.2.3.3.3.3.3.3.3.3.3.3.3.3.3.3.3.3.3.3.3.3.3.3.3.3.3.3.3.2.3.1...} P d 5 # X ",
"o $ 8 k  .a.n.B.M.j.2.;.=.;.;.;.;.;.;.;.;.;.;.;.;.;.;.;.;.;.;.;.;.;.;.;.;.;.;.;.;.;.>.1.e.| S 8 $ o ",
". % t P u.N.B.b.f.3.*.@.) @.@.@.@.@.@.@.@.@.@.@.@.@.@.@.@.@.@.@.@.@.@.@.@.@.@.@.@.@.&.<.y...V q $ o ",
". % y T c.Z.M.d.1.&.( x x x x x x x x x x x x x x x x x x x x x x x x x x x x x x x ( ;.5.,.Z e % . ",
". % u R n.C.v.1.#.( ^ z z z z z z z z z z z z z z z z z z z z z z z z z z z z z z z / %.4.:.B w % . ",
". % y Y l.m.7.&.( / ^ z z z z z z z z z z z z z z z z z z z z z z z z z z z z z z z / $.-._ n 4 $ o ",
". % e A t.f.<.( ^ ^ ^ / / / / / / / / / / / / / / / / / / / / / / / / / / / / / / / / ) ) ! v 3 $ o ",
"o $ q N { <.*./ z z / / / / / / / / / / / / / / / / / / / / / / / / / / / / / / / / / ( x l g < $ o ",
"o $ 4 b ~ *.@.^ z ^ / / / / / / / / / / / / / / / / / / / / / / / / / / / / / / / / / ( x l g < $ o ",
"o $ 3 c Q ) ) / / / / / / / / / / / / / / / / / / / / / / / / / / / / / / / / / / / / ) ( U h 2 $ o ",
"o $ < g l x ( / / / / / / / / / / / / / / / / / / / / / / / / / / / / / / / / / / / / ) ) Q c 2 $ o ",
"o $ < g l x ( / / / / / / / / / / / / / / / / / / / / / / / / / / / / / / / / / / / / ) ) Q c 2 $ o ",
"o $ 2 h U ( ) / / / / / / / / / / / / / / / / / / / / / / / / / / / / / / / / / / / / ) ) Q c 2 $ o ",
"o $ 2 c Q ) ) / / / / / / / / / / / / / / / / / / / / / / / / / / / / / / / / / / / / ) ) Q c 2 $ o ",
"o $ 2 c Q ) ) / / / / / / / / / / / / / / / / / / / / / / / / / / / / / / / / / / / / ) ) Q c 2 $ o ",
"o $ 2 c Q ) ) / / / / / / / / / / / / / / / / / / / / / / / / / / / / / / / / / / / / ) ) Q c 2 $ o ",
"o $ 2 c Q ) ) / / / / / / / / / / / / / / / / / / / / / / / / / / / / / / / / / / / / ) ) Q c 2 $ o ",
"o $ 2 c Q ) ) / / / / / / / / / / / / / / / / / / / / / / / / / / / / / / / / / / / / ) ( U h 2 $ o ",
"o $ 2 c Q ) ) / / / / / / / / / / / / / / / / / / / / / / / / / / / / / / / / / / / / ) ( U h 2 $ o ",
"o $ 2 c Q ) ) / / / / / / / / / / / / / / / / / / / / / / / / / / / / / / / / / / / / ) ) Q v 3 $ o ",
"o $ 2 c Q ) ) / / / / / / / / / / / / / / / / / / / / / / / / / / / / / / / / / / / ( &.:.' M 4 $ o ",
"o $ 2 c Q ) ) / / / / / / / / / / / / / / / / / / / / / / / / / / / / / / / / / / / ` >.y.q.C q % . ",
"o $ 2 c Q ) ) / / / / / / / / / / / / / / / / / / / / / / / / / / / / / / / / / / / ` 3.h.i.I t % . ",
"o $ 2 c Q ) ) / / / / / / / / / / / / / / / / / / / / / / / / / / / / / / / / / / / ` 1.h.r.L t % . ",
"o $ 2 c Q ) ) / / / / / / / / / / / / / / / / / / / / / / / / / / / / / / / / / / / ` >.3...V q $ . ",
"o $ 2 c Q ) ) / / / / / / / / / / / / / / / / / / / / / / / / / / / / / / / / / / / ( &.>.[ M 4 $ o ",
"o $ 2 h U ( ) / / / / / / / / / / / / / / / / / / / / / / / / / / / / / / / / / / ^ / &.:.' m 4 $ o ",
"o $ < g l x ( / / / / / / / / / / / / / / / / / / / / / / / / / / / / / / / / / ^ z ^ @.:.] M 4 $ o ",
"o $ < g l x ( / / / / / / / / / / / / / / / / / / / / / / / / / / / / / / / / / z z ^ &.<.{ N 4 $ o ",
"o $ 3 v ! ) ) / / / / / / / / / / / / / / / / / / / / / / / / / / / / / / / / ^ ^ ^ ( ;.5.8.C e % . ",
"o $ 4 n _ -.$./ z z z z z z z z z z z z z z z z z z z z z z z z z z z z z z z ^ / ( &.6.v.g.Y r % . ",
". % w B :.4.%./ z z z z z z z z z z z z z z z z z z z z z z z z z z z z z z z ^ ( #.1.v.C.x.R u % . ",
". % e Z ,.5.;.( x x x x x x x x x x x x x x x x x x x x x x x x x x x x x x x ( &.1.d.M.Z.c.T y % . ",
"o $ q V ..y.<.&.@.@.@.@.@.@.@.@.@.@.@.@.@.@.@.@.@.@.@.@.@.@.@.@.@.@.@.@.@.) @.*.3.f.b.B.N.u.P t % . ",
"o $ 8 S | e.1.>.;.;.;.;.;.;.;.;.;.;.;.;.;.;.;.;.;.;.;.;.;.;.;.;.;.;.;.;.;.=.;.2.j.M.B.n.a. .k 8 $ o ",
"X # 5 d P } ..1.3.2.3.3.3.3.3.3.3.3.3.3.3.3.3.3.3.3.3.3.3.3.3.3.3.3.3.3.3.2.3.5.v.V.N.a. .K a , # O ",
"O # - 7 a F E w.d.f.s.s.s.s.s.s.s.s.s.s.s.s.s.s.s.s.s.s.s.s.s.s.s.s.s.s.s.s.s.h.b.B.z.o.F p 6 * # O ",
"+ + # $ ; i J X.k.k.p.p.p.p.p.p.p.p.p.p.p.p.p.p.p.p.p.p.p.p.p.p.p.p.p.p.p.p.p.k.l.z.9.L i = $ @ + + ",
"+ + X   X > f W +.0.O.O.O.O.O.O.O.O.O.O.O.O.O.O.O.O.O.O.O.O.O.O.O.O.O.O.O.O.O.O.+.O.R s : X   X + + ",
"+ + X     & t j H H G G G G G G G G G G G G G G G G G G G G G G G G G G G G G G H D f q &     X + + ",
"+ + O X O # ; 7 0 0 0 0 0 0 0 0 0 0 0 0 0 0 0 0 0 0 0 0 0 0 0 0 0 0 0 0 0 0 0 0 0 9 6 ; # O X O + + ",
"+ + + + + @ # $ $ $ $ $ $ $ $ $ $ $ $ $ $ $ $ $ $ $ $ $ $ $ $ $ $ $ $ $ $ $ $ $ $ $ $ # @ + + + + + ",
"+ + + + + + O o o . o o o o o o o o o o o o o o o o o o o o o o o o o o o o o o o o o O + + + + + + "
};
