/* XPM */
static char *xpm_________________________resized[] = {
/* columns rows colors chars-per-pixel */
"50 50 220 2 ",
"   c #231218",
".  c #241218",
"X  c #241219",
"o  c #241319",
"O  c #251319",
"+  c #25131A",
"@  c #25131B",
"#  c #26131B",
"$  c #26141B",
"%  c #26141C",
"&  c #27141C",
"*  c #27141D",
"=  c #27151D",
"-  c #28151D",
";  c #28151E",
":  c #28161F",
">  c #29161F",
",  c #291620",
"<  c #2A1620",
"1  c #2A1721",
"2  c #2B1722",
"3  c #2B1822",
"4  c #2B1823",
"5  c #2C1823",
"6  c #2C1824",
"7  c #2C1924",
"8  c #2D1924",
"9  c #2D1925",
"0  c #2E1926",
"q  c #2E1A26",
"w  c #2E1A27",
"e  c #2F1A27",
"r  c #2F1A28",
"t  c #2F1B28",
"y  c #301B28",
"u  c #301B29",
"i  c #301C2A",
"p  c #311C2A",
"a  c #311C2B",
"s  c #321D2C",
"d  c #321D2D",
"f  c #331D2D",
"g  c #331E2D",
"h  c #331E2E",
"j  c #341E2E",
"k  c #341E2F",
"l  c #351F30",
"z  c #351F31",
"x  c #361F31",
"c  c #362031",
"v  c #362032",
"b  c #372032",
"n  c #372133",
"m  c #382134",
"M  c #392234",
"N  c #392235",
"B  c #3A2236",
"V  c #3A2337",
"C  c #3B2337",
"Z  c #3C2337",
"A  c #3C2437",
"S  c #3A2338",
"D  c #3B2338",
"F  c #3C2438",
"G  c #3D2438",
"H  c #3D2538",
"J  c #3C2439",
"K  c #3E2538",
"L  c #3C243A",
"P  c #3C253A",
"I  c #3D253A",
"U  c #3E263C",
"Y  c #3F263C",
"T  c #3F263D",
"R  c #40273D",
"E  c #412840",
"W  c #422840",
"Q  c #422841",
"!  c #442A41",
"~  c #442942",
"^  c #462B42",
"/  c #472C43",
"(  c #462B45",
")  c #472B45",
"_  c #472C45",
"`  c #482C43",
"'  c #482C45",
"]  c #492D45",
"[  c #4A2D45",
"{  c #4A2E45",
"}  c #4A2E46",
"|  c #4A2D49",
" . c #4B2E48",
".. c #4B2F48",
"X. c #4A2E49",
"o. c #4B2E49",
"O. c #4B2F49",
"+. c #4C2F48",
"@. c #4C2F49",
"#. c #4C2F4A",
"$. c #4D2F4A",
"%. c #4E3146",
"&. c #4D3049",
"*. c #4E3049",
"=. c #4E3149",
"-. c #4F3149",
";. c #4D304A",
":. c #4E314A",
">. c #4F324A",
",. c #523349",
"<. c #533448",
"1. c #523449",
"2. c #533549",
"3. c #52344A",
"4. c #53344A",
"5. c #543549",
"6. c #543649",
"7. c #553649",
"8. c #553749",
"9. c #563748",
"0. c #563649",
"q. c #563749",
"w. c #55364A",
"e. c #56374A",
"r. c #57374B",
"t. c #573848",
"y. c #57384A",
"u. c #57384B",
"i. c #593948",
"p. c #593949",
"a. c #58384A",
"s. c #59394A",
"d. c #58384B",
"f. c #58394B",
"g. c #59394B",
"h. c #5D3D48",
"j. c #5E3D49",
"k. c #5E3E48",
"l. c #5F3E48",
"z. c #5E3E49",
"x. c #5F3E49",
"c. c #5F3E4A",
"v. c #58384C",
"b. c #613F48",
"n. c #603F49",
"m. c #613F49",
"M. c #6D4947",
"N. c #614048",
"B. c #614049",
"V. c #624049",
"C. c #624149",
"Z. c #634149",
"A. c #61404A",
"S. c #62404A",
"D. c #62404B",
"F. c #63414B",
"G. c #64424B",
"H. c #65424B",
"J. c #65434B",
"K. c #664448",
"L. c #674548",
"P. c #64424C",
"I. c #65434C",
"U. c #66434C",
"Y. c #66434D",
"T. c #67444D",
"R. c #67444E",
"E. c #684549",
"W. c #684648",
"Q. c #6A4748",
"!. c #6B4748",
"~. c #68444D",
"^. c #68444E",
"/. c #6B4848",
"(. c #6C4848",
"). c #6C4849",
"_. c #6D4949",
"`. c #6E4A48",
"'. c #6F4A48",
"]. c #6F4B48",
"[. c #6F4B49",
"{. c #6D494A",
"}. c #6E494A",
"|. c #6E4A4A",
" X c #6F4A4B",
".X c #704B48",
"XX c #704B49",
"oX c #704B4B",
"OX c #704C48",
"+X c #704C49",
"@X c #714C49",
"#X c #704C4A",
"$X c #714C4A",
"%X c #724D4A",
"&X c #724D4B",
"*X c #734D4B",
"=X c #734E4B",
"-X c #744E4B",
";X c #704B4C",
":X c #714C4C",
">X c #714C4D",
",X c #724D4D",
"<X c #734D4D",
"1X c #724C4E",
"2X c #734D4E",
"3X c #734D4F",
"4X c #744E4C",
"5X c #744F4C",
"6X c #754F4C",
"7X c #754F4D",
"8X c #744E4E",
"9X c #744E4F",
"0X c #76504C",
"qX c #76504D",
"wX c #77504D",
"eX c #76504E",
"rX c #77504E",
"tX c #78514E",
"yX c #79514F",
"uX c #79524F",
/* pixels */
"+ + + + + + + + + + + + + + + + + + + + + + + + X . & y K ' $.#.o.X.| | | | | | | | | | X.X.o.@.@.@.",
"+ + + + + + + + + + + + + + + + + + + + + + + + X . & y H ' ;.:.*.*.=.=.=.=.=.=.=.=.=.=.*.*.&.@.@.@.",
"+ + + + + + + + + + + + + + + + + + + + + + + + X . & y H ] >.4.6.q.y.a.g.g.g.g.g.f.a.y.q.7.1.-.@.@.",
"+ + + + + + + + + + + + + + + + + + + + + + + + X . & y G ] 3.s.k.C.H.U.T.~.T.T.T.T.U.J.Z.x.i.1.&.o.",
"+ + + + + + + + + + + + + + + + + + + + + + + + X . & y F [ w.c.E.}.:X<X8X9X8X8X9X9X2X:X|.W.l.6.*.X.",
"+ + + + + + + + + + + + + + + + + + + + + + + + X . & y F [ e.F.{.=X6XqXwXwXwXrXtXuXtX0X%X(.N.9.*.X.",
"+ + + + + + + + + + + + + + + + + + + + + + + + X . & r Z [ u.I.;X6X6X-X=X=X=X5XwXyXyX0X%X(.N.9.*.X.",
"+ + + + + + + + + + + + + + + + + + + + + + + + X . & r Z [ v.R.1XqX-X#X[.'.[.#X4XeXrX6X%X/.b.8.*.X.",
"+ + + + + + + + + + + + + + + + + + + + + + + + X . & e Z [ v.^.3XrX-XXX`.M.`.[.&X4X7X6X*X{.V.q.*.X.",
"+ + + + + + + + + + + + + + + + + + + + + + + + X . & e Z [ v.^.3XrX5XXX`.M.`.'.XX&X*X5X5X;XG.y.=.| ",
"+ + + + + + + + + + + + + + + + + + + + + + + + X . & e Z [ v.R.2XwX-XXX`.`.`.`.'.[.#X-XqX,XU.a.=.| ",
"+ + + + + + + + + + + + + + + + + + + + + + + + X . & r Z [ d.Y.>X7X=X[.`.`.`.`.`.`.[.*X7X,XU.a.=.| ",
"+ + + + + + + + + + + + + + + + + + + + + + + + X . & y A [ r.P. X*X@X[.`.`.`.`.`.`.'.@X*XoXG.y.=.| ",
"+ + + + + + + + + + + + + + + + + + + + + + + + X . & y F [ e.D.).XXXX'.`.`.`.`.`.`.`.XX+X_.V.q.*.X.",
"+ + + + + + + + + + + + + + + + + + + + + + + + X . & y F [ e.A.Q.'.].'.`.`.`.`.`.`.`.].]./.N.8.*.X.",
"+ + + + + + + + + + + + + + + + + + + + + + + + X . & y G { e.S./.].OX].].].].].].].].OX.X(.N.9.*.X.",
"+ + + + + + + + + + + + + + + + + + + + + + + + X . & y F [ e.S.!.]..X'.'.'.'.'.'.'.'..X]./.N.9.*.X.",
"+ + + + + + + + + + + + + + + + + + + + + + + + X . & e C ` 2.j.K.!./.Q.Q.Q.Q.Q.Q.Q.Q./.!.L.z.6.*.o.",
"+ + + + + + + + + + + + + + + + + + + + + + + + X . & q M ! %.t.h.m.B.n.n.n.n.n.n.n.n.B.B.x.p.1.&.O.",
"+ + + + + + + + + + + + + + + + + + + + + + + + o X % 9 c Y / %.<.0.0.7.7.7.7.7.7.7.7.7.7.5.,.-.&.@.",
"+ + + + + + + + + + + + + + + + + + + + + + + + O X $ 4 d B R ^ } +.+.+.+.+.+.+.+.+.+.+.+.+... . . .",
"+ + + + + + + + + + + + + + + + + + + + + + + + O O # > 0 s m U ~ ( ) ( ( ( ( ( ( ( ( ( ( ( ( ) _ _ ",
"+ + + + + + + + + + + + + + + + + + + + + + + + + + @ % ; 3 p m T Q Q E E E E E E E E E E E W W W W ",
"+ + + + + + + + + + + + + + + + + + + + + + + + + + + @ $ ; 9 j B P I L J J J J J J J J J J J J J J ",
"+ + + + + + + + + + + + + + + + + + + + + + + + + O @ * , 5 w a j l l l l l l l l l l l l l l l l l ",
"+ + + + + + + + + + + + + + + + + + + + + + + + O O $ < t f f i 0 7 7 8 8 8 8 8 8 8 8 8 8 8 8 8 8 8 ",
"+ + + + + + + + + + + + + + + + + + + + + + + + o X $ 5 j N b u , % $ & & & & & & & & & & & & & & & ",
"+ + + + + + + + + + + + + + + + + + + + + + + + o X % 9 z D m u = .   X X X X X X X X X X X X X X X ",
"+ + + + + + + + + + + + + + + + + + + + + + + + o X % 8 z D m u = . . X o o o o o o o o o o o o o o ",
"+ + + + + + + + + + + + + + + + + + + + + + + + o X % 7 l V m u ; O X + + + + + + + + + + + + + + + ",
"+ + + + + + + + + + + + + + + + + + + + + + + + o X % 8 z S m u ; O X + + + + + + + + + + + + + + + ",
"+ + + + + + + + + + + + + + + + + + + + + + + + o X % 9 x D m u ; O X + + + + + + + + + + + + + + + ",
"+ + + + + + + + + + + + + + + + + + + + + + + + o X $ 6 l V n u ; O X + + + + + + + + + + + + + + + ",
"+ + + + + + + + + + + + + + + + + + + + + + + + O o $ 2 a z h 0 = O o + + + + + + + + + + + + + + + ",
"+ + + + + + + + + + + + + + + + + + + + + + + + O O @ ; 5 q 9 < % + O + + + + + + + + + + + + + + + ",
"+ + + + + + + + + + + + + + + + + + + + + + + + + + + % = ; ; & @ + + + + + + + + + + + + + + + + + ",
"+ + + + + + + + + + + + + + + + + + + + + + + + + + + % - : ; * @ + + + + + + + + + + + + + + + + + ",
"+ + + + + + + + + + + + + + + + + + + + + + + + O O @ : 7 t 0 1 % + O + + + + + + + + + + + + + + + ",
"+ + + + + + + + + + + + + + + + + + + + + + + + O o $ 3 s v k 0 = O o + + + + + + + + + + + + + + + ",
"+ + + + + + + + + + + + + + + + + + + + + + + + o X % 7 l V m u ; O X + + + + + + + + + + + + + + + ",
"+ + + + + + + + + + + + + + + + + + + + + + + + o X % 9 c J N i ; O X + + + + + + + + + + + + + + + ",
"+ + + + + + + + + + + + + + + + + + + + + + + + o X % 8 z D m u ; O X + + + + + + + + + + + + + + + ",
"+ + + + + + + + + + + + + + + + + + + + + + + + O X $ 5 g m z w - O o + + + + + + + + + + + + + + + ",
"+ + + + + + + + + + + + + + + + + + + + + + + + O O # , w a u 4 & O O + + + + + + + + + + + + + + + ",
"+ + + + + + + + + + + + + + + + + + + + + + + + + + @ * > 1 < - $ + + + + + + + + + + + + + + + + + ",
"+ + + + + + + + + + + + + + + + + + + + + + + + + + + + @ # # @ + + + + + + + + + + + + + + + + + + ",
"+ + + + + + + + + + + + + + + + + + + + + + + + + + + O o X o O + + + + + + + + + + + + + + + + + + ",
"+ + + + + + + + + + + + + + + + + + + + + + + + + + + + O O O + + + + + + + + + + + + + + + + + + + ",
"+ + + + + + + + + + + + + + + + + + + + + + + + + + + + + + + + + + + + + + + + + + + + + + + + + + ",
"+ + + + + + + + + + + + + + + + + + + + + + + + + + + + + + + + + + + + + + + + + + + + + + + + + + "
};
