/* XPM */
static char *xpm_______________________resized[] = {
/* columns rows colors chars-per-pixel */
"50 50 168 2 ",
"   c #221117",
".  c #241218",
"X  c #241219",
"o  c #241319",
"O  c #25131A",
"+  c #26131B",
"@  c #26141B",
"#  c #27141C",
"$  c #27151D",
"%  c #28151D",
"&  c #2A1721",
"*  c #2B1722",
"=  c #2D1924",
"-  c #2E1A26",
";  c #2F1A28",
":  c #301B27",
">  c #301B28",
",  c #311C28",
"<  c #331D2B",
"1  c #3A2331",
"2  c #3A2234",
"3  c #3A2235",
"4  c #3C2337",
"5  c #3C2435",
"6  c #3C2437",
"7  c #3D2437",
"8  c #3E2537",
"9  c #3C2438",
"0  c #3D2438",
"q  c #3D2538",
"w  c #3E2538",
"e  c #482D3D",
"r  c #472B41",
"t  c #452A43",
"y  c #482C45",
"u  c #492D45",
"i  c #4A2D44",
"p  c #4A2D45",
"a  c #4B2E46",
"s  c #4A2D49",
"d  c #4A2E49",
"f  c #4B2E49",
"g  c #4B2F49",
"h  c #4B2E4A",
"j  c #4B2E4B",
"k  c #4C2F49",
"l  c #4D2F49",
"z  c #4C2F4A",
"x  c #4D3049",
"c  c #4E3049",
"v  c #4E3149",
"b  c #4F3249",
"n  c #4D304A",
"m  c #4E304A",
"M  c #4E314A",
"N  c #4F314A",
"B  c #4E314B",
"V  c #4F314B",
"C  c #4F324A",
"Z  c #543547",
"A  c #573845",
"S  c #503249",
"D  c #50324A",
"F  c #50324B",
"G  c #52344A",
"H  c #53344A",
"J  c #543648",
"K  c #553649",
"L  c #563749",
"P  c #54354A",
"I  c #54354B",
"U  c #55364A",
"Y  c #56364A",
"T  c #56374A",
"R  c #57374B",
"E  c #55364C",
"W  c #57374C",
"Q  c #57384A",
"!  c #57384B",
"~  c #57384C",
"^  c #58384A",
"/  c #58394A",
"(  c #58384B",
")  c #59394B",
"_  c #5A3A4A",
"`  c #5F3E49",
"'  c #5C3C4B",
"]  c #5D3C4B",
"[  c #5F3E4A",
"{  c #58384C",
"}  c #59394C",
"|  c #5D3C4D",
" . c #5E3D4D",
".. c #614048",
"X. c #624048",
"o. c #624148",
"O. c #624049",
"+. c #624149",
"@. c #634149",
"#. c #61404A",
"$. c #62404A",
"%. c #64424A",
"&. c #65424A",
"*. c #65434A",
"=. c #64424B",
"-. c #65424B",
";. c #674548",
":. c #63414C",
">. c #64424C",
",. c #65424C",
"<. c #64424D",
"1. c #65424D",
"2. c #66434C",
"3. c #66434D",
"4. c #65424E",
"5. c #67444C",
"6. c #67444D",
"7. c #67444E",
"8. c #6A4748",
"9. c #6B4748",
"0. c #68444D",
"q. c #68454D",
"w. c #69454D",
"e. c #6B4848",
"r. c #6B4849",
"t. c #6C4848",
"y. c #6C4849",
"u. c #6C4949",
"i. c #6D4A48",
"p. c #6E4A48",
"a. c #6F4A48",
"s. c #6F4B48",
"d. c #6F4B49",
"f. c #6F4A4B",
"g. c #6F4A4D",
"h. c #6F4A4E",
"j. c #704B48",
"k. c #704B49",
"l. c #704B4B",
"z. c #704C48",
"x. c #704C49",
"c. c #714C49",
"v. c #724D49",
"b. c #704C4A",
"n. c #724D4A",
"m. c #734D4A",
"M. c #734E4A",
"N. c #734E4B",
"B. c #744E4B",
"V. c #744F4B",
"C. c #754F4B",
"Z. c #704B4E",
"A. c #724C4D",
"S. c #724D4D",
"D. c #734D4D",
"F. c #744E4C",
"G. c #754F4C",
"H. c #764F4C",
"J. c #744E4E",
"K. c #754E4E",
"L. c #754F4E",
"P. c #754F4F",
"I. c #77504D",
"U. c #77514D",
"Y. c #77504E",
"T. c #78514E",
"R. c #79524E",
"E. c #7A524F",
/* pixels */
"O O O O O O O O O O O O O O O O O O O O O O O O O O O .   o = 2 t h j d d d s s s s s s s s f g k k ",
"O O O O O O O O O O O O O O O O O O O O O O O O O O O O O % , 8 i N V v c c v v v v v v v v x l k k ",
"O O O O O O O O O O O O O O O O O O O O O O O O O o + $ & : 1 e Z ) / L L Q ^ ) ) ) ) ) ) ! P b l g ",
"O O O O O O O O O O O O O O O O O O O O O O O O o X @ * < 5 e A $.5.-.O.O.%.2.6.0.6.6.q.0.,.' P x f ",
"O O O O O O O O O O O O O O O O O O O O O O O O X . # - 3 r J :.g.D.l.u.u.f.S.J.J.J.J.P.P.Z.,.! v s ",
"O O O O O O O O O O O O O O O O O O O O O O O O X . # > 0 a } 7.A.H.M.x.x.n.G.I.Y.I.Y.R.E.P.0.) v s ",
"O O O O O O O O O O O O O O O O O O O O O O O O X . # > 0 a { 1.f.M.v.j.j.c.m.N.N.N.F.U.R.P.q.) v s ",
"O O O O O O O O O O O O O O O O O O O O O O O O X . # > 9 p T $.r.k.j.a.a.a.d.d.d.d.b.F.Y.J.6.) v s ",
"O O O O O O O O O O O O O O O O O O O O O O O O X . # > 9 p U #.8.a.s.p.p.p.p.p.i.i.d.N.I.J.6.) v s ",
"O O O O O O O O O O O O O O O O O O O O O O O O X . # > 9 p U #.8.a.s.p.p.p.p.i.i.i.d.N.I.J.6.) v s ",
"O O O O O O O O O O O O O O O O O O O O O O O O X . # > 9 p Y #.8.a.s.p.p.p.p.p.i.p.d.N.I.J.6.) v s ",
"O O O O O O O O O O O O O O O O O O O O O O O O X . # > 9 p Y #.8.a.s.p.p.p.p.p.i.p.d.N.I.J.6.) v s ",
"O O O O O O O O O O O O O O O O O O O O O O O O X . # > 9 p Y #.8.a.s.p.p.p.p.p.i.p.d.N.I.J.6.) v s ",
"O O O O O O O O O O O O O O O O O O O O O O O O X . # > 9 p Y #.8.a.s.p.p.p.p.p.i.p.d.N.I.J.6.) v s ",
"O O O O O O O O O O O O O O O O O O O O O O O O X . # > 9 p Y #.8.a.s.p.p.p.p.p.i.p.d.N.I.J.6.) v s ",
"O O O O O O O O O O O O O O O O O O O O O O O O X . # > 9 p Y #.8.a.s.p.p.p.p.p.i.p.d.N.I.J.6.) v s ",
"O O O O O O O O O O O O O O O O O O O O O O O O X . # > 9 p Y #.8.a.s.p.p.p.p.p.i.p.d.N.I.J.6.) v s ",
"O O O O O O O O O O O O O O O O O O O O O O O O X . # > 9 p Y #.8.a.s.p.p.p.p.p.p.p.d.B.I.J.6.) v s ",
"O O O O O O O O O O O O O O O O O O O O O O O O X . # > 9 p T $.e.j.z.s.s.s.s.s.a.s.x.C.T.L.q.) v s ",
"O O O O O O O O O O O O O O O O O O O O O O O O X . # > 9 p T $.e.s.z.s.s.s.s.a.a.a.x.V.T.K.q.) v s ",
"O O O O O O O O O O O O O O O O O O O O O O O O X . # > 9 u U [ ;.t.t.e.e.e.e.e.9.9.y.l.D.Z.1.! v s ",
"O O O O O O O O O O O O O O O O O O O O O O O O X . # > 0 u G _ ` X.o...............+.&.5.,.] P x f ",
"O O O O O O O O O O O O O O O O O O O O O O O O X . # > q y C H K L L L L L L L L L L Q / ( P D l g ",
"O O O O O O O O O O O O O O O O O O O O O O O O X . # > q y n M x c c c c c c c c c c c v c x l k k ",
"O O O O O O O O O O O O O O O O O O O O O O O O X . # > w y z z d s s d d s s s s s s s s s d g k k ",
"O O O O O O O O O O O O O O O O O O O O O O O O X . # > w y z z d s s s s s s s s s s s s s d g k k ",
"O O O O O O O O O O O O O O O O O O O O O O O O X . # > q y m B v v c c c c v v v v v v v c x l k k ",
"O O O O O O O O O O O O O O O O O O O O O O O O X . # > 7 u F E ( / ^ L L Q / ) ) ) ) ) ) ( P S l g ",
"O O O O O O O O O O O O O O O O O O O O O O O O X . # > 7 u I  .1.5.*.@.@.=.5.q.q.q.q.w.w.1.] P x f ",
"O O O O O O O O O O O O O O O O O O O O O O O O X . # > 6 p ~ 4.h.D.l.u.u.f.S.J.J.J.J.P.P.Z.,.! v s ",
"O O O O O O O O O O O O O O O O O O O O O O O O X . # ; 4 p ( 3.A.H.M.x.x.n.G.I.Y.I.Y.R.E.P.0.) v s ",
"O O O O O O O O O O O O O O O O O O O O O O O O X . # > 6 p R >.f.M.v.j.j.c.m.N.N.N.F.U.R.P.q.) v s ",
"O O O O O O O O O O O O O O O O O O O O O O O O X . # > 9 p T $.r.k.j.a.a.a.d.d.d.d.b.F.Y.J.6.) v s ",
"O O O O O O O O O O O O O O O O O O O O O O O O X . # > 9 p U #.8.a.s.p.p.p.p.p.i.i.d.N.I.J.6.) v s ",
"O O O O O O O O O O O O O O O O O O O O O O O O X . # > 9 p U #.8.a.s.p.p.p.p.i.i.i.d.N.I.J.6.) v s ",
"O O O O O O O O O O O O O O O O O O O O O O O O X . # > 9 p Y #.8.a.s.p.p.p.p.p.i.p.d.N.I.J.6.) v s ",
"O O O O O O O O O O O O O O O O O O O O O O O O X . # > 9 p Y #.8.a.s.p.p.p.p.p.i.p.d.N.I.J.6.) v s ",
"O O O O O O O O O O O O O O O O O O O O O O O O X . # > 9 p Y #.8.a.s.p.p.p.p.p.i.p.d.N.I.J.6.) v s ",
"O O O O O O O O O O O O O O O O O O O O O O O O X . # > 9 p Y #.8.a.s.p.p.p.p.p.i.p.d.N.I.J.6.) v s ",
"O O O O O O O O O O O O O O O O O O O O O O O O X . # > 9 p Y #.8.a.s.p.p.p.p.p.i.p.d.N.I.J.6.) v s ",
"O O O O O O O O O O O O O O O O O O O O O O O O X . # > 9 p U #.8.a.s.p.p.p.p.i.i.i.d.N.I.J.6.) v s ",
"O O O O O O O O O O O O O O O O O O O O O O O O X . # > 9 p U #.8.a.s.p.p.p.p.p.i.i.d.N.I.J.6.) v s ",
"O O O O O O O O O O O O O O O O O O O O O O O O X . # > 9 p T $.r.k.j.a.a.a.d.d.d.d.b.F.Y.J.6.) v s ",
"O O O O O O O O O O O O O O O O O O O O O O O O X . # > 6 p R >.f.M.v.j.j.c.m.N.N.N.F.U.R.P.q.) v s ",
"O O O O O O O O O O O O O O O O O O O O O O O O X . # ; 4 p ( 3.A.H.M.x.x.n.G.I.Y.I.Y.R.E.P.0.) v s ",
"O O O O O O O O O O O O O O O O O O O O O O O O X . # > 6 p W 4.h.D.l.u.u.f.S.J.J.J.J.P.P.Z.,.! v s ",
"O O O O O O O O O O O O O O O O O O O O O O O O X . # > 7 u I | <.2.=.O.O.%.2.6.0.6.6.q.0.,.' P x f ",
"O O O O O O O O O O O O O O O O O O O O O O O O X . # > 7 y F E ! ^ Q L L Q ^ ) ) ) ) ) ) ! P b l g ",
"O O O O O O O O O O O O O O O O O O O O O O O O X . # > q y m B v v v c c c v v v v v v v v x l k k ",
"O O O O O O O O O O O O O O O O O O O O O O O O X . # > w y z z d s s d d d s s s s s s s s f g k k "
};
