/* XPM */
static char *avgf3_maspo[] = {
/* columns rows colors chars-per-pixel */
"50 50 22 1 ",
"  c #231218",
". c #241319",
"X c #26141C",
"o c #27151D",
"O c #28151F",
"+ c #2B1722",
"@ c #2B1822",
"# c #2C1923",
"$ c #2F1A27",
"% c #2F1A28",
"& c #301B29",
"* c #311C2A",
"= c #321D2C",
"- c #341E2E",
"; c #351F30",
": c #362031",
"> c #382132",
", c #3A2337",
"< c #3B2338",
"1 c #3B2439",
"2 c #3D253B",
"3 c #3D253C",
/* pixels */
"22222222222222222222222222222222222222222222222222",
"22222222222222222222222222222222222222222222222222",
"22222222222222222222222222222222222222222222222222",
"22222222222222222222222222222222222222222222222222",
"22222222222222222222222222222222222222222222222222",
"22222222222222223222222222222222233233222222222222",
"22222222233333333332222222222223333333333222222222",
"22222222222222222222222222222222222222222222222222",
"222222222,,,,,,,,,,222222222222,,,,,,,:,,222222222",
"22222232,:=&%&&%&*;,2322222232,;*&%&&%&*:,23222222",
"22222232,=@OOOOOO+*,2332222332,*+OOOOOO@=,23222222",
"22222332,&O......O$:2332222332:$o......O&,23322222",
"22222332,%o. .. .o$:2332222332:$o. .. .O%,23322222",
"22222332,&O......o$:2332222332:$O......O&,23322222",
"22222332,&O......O$:2332222332:%O......O&,23322222",
"22222332:%O. .. .o$:2332222332:$o. .. .O%:23322222",
"22222332,&O......o$:2332222332:$o......O&,23322222",
"22222232,*+ooOOoo+*,2332222332,*+ooOOoO+*,23222222",
"22222232,;*$$%%$$*;,2322222332,;*$$%$$$*;,23222222",
"222222222,,::::::,,122222222222,,::::::,,222222222",
"22222222222222222222222222222222222222222222222222",
"22222222233333333332222222221,12233333332222222222",
"2222222222223333322222222221,,,1233333332222222222",
"222222222222222222222222222,,:>,222222222222222222",
"222222222222222222222222222,>::,222222222222222222",
"222222222222222222222222222<,::,222222222222222222",
"222222222222222222222222222<,:>,223222222222222222",
"222222222223333333222222222<,:>,233333332222222222",
"222222222333333333322222222<,:>,233333333222222222",
"222222222222222222222222222<>::,222222222222222222",
"222222222,,::::::,,122222221,::::::::::,,222222222",
"22222232,;*%$%$$$*;,23222221,:-*&$$%$$$*;,23222222",
"22222232,*+oooooo+*,23222221,:*$+oooOoo+*,23222222",
"22222232,&O. ....o$:23322221,:*#o......O&,23222222",
"22222232,&O. .. .o$:23322221,:*@o. .. .O%,23222222",
"22222232,&O......O$:23322221,:*#o......O&,23222222",
"22222332,&O......O$:23322222,:*#o......O&,23222222",
"22222332,&O......o$:233222222,-$o. .. .O%,23222222",
"22222332,&O......O%:2332222221:$o......O&,23322222",
"22222222:*+oooooo+*,2332222332,*+OOOOOO@=,23322222",
"222<,,,,:=$$#####$=,2322222232,;*&%&&%&=:,23222222",
"221,>::::-=******=:,22222222222,,,:,,,,,,222222222",
"221,::::::::::::::,1222222222222222222222222222222",
"222,,,,,,,,,,,,,,,12222222221,12233333332222222222",
"2222111111112222122222222221,>,1223333322222222222",
"222222222222222222222222222<,:>,222222222222222222",
"222222222222222222222222222,>::,222222222222222222",
"222222222222222222222222222,>::,222222222222222222",
"222222222222222222222222222<,:>,222222222222222222",
"222222222222222222222222222<,:>,222222222222222222"
};
