/* XPM */
static char *a3t3v_g7rum[] = {
/* columns rows colors chars-per-pixel */
"50 50 108 2 ",
"   c #27151D",
".  c #29161F",
"X  c #29181F",
"o  c #2A1622",
"O  c #2C1823",
"+  c #2F1A28",
"@  c #331D2D",
"#  c #351F31",
"$  c #391F35",
"%  c #33232B",
"&  c #372132",
"*  c #392235",
"=  c #3B2D35",
"-  c #3D253B",
";  c #3E2A3B",
":  c #3F323A",
">  c #40293F",
",  c #40343C",
"<  c #422B41",
"1  c #463345",
"2  c #453A43",
"3  c #483B45",
"4  c #473448",
"5  c #49364B",
"6  c #4B3A4C",
"7  c #4E3C51",
"8  c #503F53",
"9  c #524355",
"0  c #554C55",
"q  c #54465A",
"w  c #564A5B",
"e  c #584D5B",
"r  c #555059",
"t  c #5A525C",
"y  c #5A4D61",
"u  c #5E5662",
"i  c #5F5861",
"p  c #5F5468",
"a  c #615565",
"s  c #625C66",
"d  c #61576B",
"f  c #645D69",
"g  c #665D71",
"h  c #676772",
"j  c #6B6477",
"k  c #6C6B76",
"l  c #6F6778",
"z  c #6D6B7A",
"x  c #726D7C",
"c  c #6F717C",
"v  c #75727D",
"b  c #726E81",
"n  c #757384",
"m  c #797582",
"M  c #7C7885",
"N  c #777688",
"B  c #797789",
"V  c #7A7B8C",
"C  c #7D7F90",
"Z  c #817F8B",
"A  c #7D828E",
"S  c #7F8392",
"D  c #83828E",
"F  c #858592",
"G  c #868B9C",
"H  c #8B8D9B",
"J  c #8E929F",
"K  c #91929F",
"L  c #898FA0",
"P  c #8D94A3",
"I  c #8F99A6",
"U  c #9395A2",
"Y  c #9699A6",
"T  c #949CAB",
"R  c #989DAA",
"E  c #9BA1AF",
"W  c #9CA4B2",
"Q  c #9DA5B2",
"!  c #9EA6B3",
"~  c #99A5B4",
"^  c #9EA7B4",
"/  c #9FA9B6",
"(  c #9CABB7",
")  c #9DABBB",
"_  c #9EACBB",
"`  c #9EADBB",
"'  c #A0A9B7",
"]  c #A1ABB9",
"[  c #A2ACB9",
"{  c #A2AEBC",
"}  c #A1B0BF",
"|  c #A4B2BF",
" . c #A2B2C1",
".. c #A5B3C0",
"X. c #A4B5C2",
"o. c #A6B5C2",
"O. c #A6B7C5",
"+. c #A7B9C6",
"@. c #A9BAC7",
"#. c #A9BCCA",
"$. c #ABBDCB",
"%. c #ACBDCB",
"&. c #ABBECC",
"*. c #ADBFCC",
"=. c #ACC0CE",
"-. c #AEC3D1",
";. c #AFC4D1",
":. c #B0C4D2",
/* pixels */
"- - - - - - - - - - - - - - - - - - - - - - - - - - - - - - - - - - - - - - - - - - - - - - - - - - ",
"- - - - - - - - - - - - - - - - - - - - - - - - - - - - - - - - - - - - - - - - - - - - - - - - - - ",
"- - - - - - - - - - - - - - - - - - - - - - - - - - - - - - - - - - - - - - - - - - - - - - - - - - ",
"- - - - - - - - - - - - - * * - - - - - - - - - - - - - - - - - - - - * * - - - - - - - - - - - - - ",
"- - - - - - - - - - - - ; > > - - - - - - - - - - - - - - - - - - - ; > > - - - - - - - - - - - - - ",
"- - - - - - - - - - - < 6 q q 6 ; & & - - - - - - - - - - - - - - < 7 q q 5 - & * - - - - - - - - - ",
"- - - - - - - - - $ * 1 p n n u ; O @ * - - - - - - - - - - - $ * 5 d n x e = O @ * - - - - - - - - ",
"- - - - - - - - - - - 9 n T I z 2 O O # - - - - - - - - - - - - ; q B T P h : O O & - - - - - - - - ",
"- - - - - - - - < 4 9 g G } _ A r = % & * * - - - - - - - - < 5 q j P  .( V 0 = % & * * - - - - - - ",
"- - - - - - - - 5 p b G ~ $.O.I v t 3 = @ @ * - - - - - - - 6 p n H ) $.o.P k e 2 & @ @ * - - - - - ",
"- - - - - - * - 9 x I } $.*.@.^ H v t ; O O # - - - - - * > q n T  .&.*.O.~ H x 0 = O O & - - - - - ",
"- - - - - - $ - q V _ -.:.$...] R F s : O o @ - - - - - $ > y S } ;.;.$.../ Y Z u = o o # - - - - - ",
"- - - - - - $ - w C } :.*.} ^ W R F f : O o @ - - - - - $ < y F o.:.%.{ ^ W Y D s = . o # - - - - - ",
"- - - - - - $ - q V _ $.o.W Y Y U D s : O o @ - - - - - $ > y F } $.| E Y Y U Z u = . o # - - - - - ",
"- - - - - - * - q B ~ o.] T U U U D s : O o @ - - - - - * > e C ' o./ Y K U U Z u = o o # - - - - - ",
"- - - - - - * - 9 n T ] W Y U Y Y F f , O o @ - - - - - * > w B T [ W Y U Y U D s = o o # - - - - - ",
"- - - - - - * - 8 l H R R U U Y U F f , O o @ - - - - - * > 9 x H R T U U Y U D s = o o # - - - - - ",
"- - - - - - - - 6 d m F F D D F F m t = O o @ - - - - - - ; 7 f M F F D D F F v e = . o # - - - - - ",
"- - - - - - - - 1 9 t s s s s f f t 3 % . o # - - - - - - - 1 9 u s s s s f s t 2 % . O # - - - - - ",
"- - - - - - - - ; ; : : : : : , , = % O   O # - - - - - - - ; ; : : : : , , , = % X . O & - - - - - ",
"- - - - - - - - * @ O O o o O O O O .   . + & - - - - - - - * @ O O O O O O O o .   o @ & - - - - - ",
"- - - - - - - - * @ O o o o o o o o o O + @ * - - - - - - * & @ O o o o o o o o o O @ @ * - - - - - ",
"- - - - - - - - - * # @ @ @ @ @ @ @ # # & * - - - - - - * * & # @ @ @ @ @ @ @ @ # # & * - - - - - - ",
"- - - - - - - - - - - - - - - - - - - - - - - - - - - - * & & * - - - - - - - - - - - - - - - - - - ",
"- - - - - - - - - - - - - - - - - - - - - - - - - - - * & & & * - - - - - - - - - - - - - - - - - - ",
"- - - - - - - - - - - - - * - - - - - - - - - - - - - - * & & * - - - - - - - - - - - - - - - - - - ",
"- - - - - - - - - - - - > < < ; - - - - - - - - - - - - * & & * - - < < < ; - - - - - - - - - - - - ",
"- - - - - - - - - - - < 7 e w 6 ; # # - - - - - - - - - * & & # - < 7 e w 6 - # # - - - - - - - - - ",
"- - - - - - - - - $ * 4 d N N p ; O + * - - - - - - - * * & # # * 5 f B N t = O @ * - - - - - - - - ",
"- - - - - - - - - - ; 9 N T T c 2 + O # - - - - - - - * & & & * > w V T I k , O O & - - - - - - - - ",
"- - - - - - - - < 5 q j L  .} F t , & & * * - - - - - * & & ; 4 w z I o._ A 0 : & & * * - - - - - - ",
"- - - - - - - - 6 p n H ) $.+.T m u 3 = @ @ * - - - - * # * 4 p N P _ &.o.P v t 3 & @ @ * - - - - - ",
"- - - - - - * - 9 b T o.&.*.+./ J m t ; O O # - - - - * @ - 9 n T O.=.*.O.W H v e = O O # - - - - - ",
"- - - - - - $ - q V _ ;.:.$...] R F s : O o @ - - - - * @ - q A } :.;.@.| ' T D u = . o # - - - - - ",
"- - - - - - $ - w C } ;.%.{ W E R F f : O o @ - - - - * @ - q S o.:.$.[ W E Y D i = . o # - - - - - ",
"- - - - - - $ - q V ) $...E Y Y U D s : O o @ - - - - * @ - q A _ $.} R Y Y U Z u = . o # - - - - - ",
"- - - - - - * - q B ~ o.] Y U U U D s : O o @ - - - - * # - q V ~ o./ Y K U U Z i = o o # - - - - - ",
"- - - - - - * - 9 n T ] W Y U Y Y F f , O o @ - - - - * # - q N T ] W Y U Y U D s = o o # - - - - - ",
"- - - - - - * - 8 l H Y Y U U U U D s : O o @ - - - - - * - 9 x H T Y U U U U Z i = o o # - - - - - ",
"- - - - - - * - 5 a v Z D Z Z D D v t = O o @ - - - - - - ; 6 d m D D Z Z D Z x 0 = . O # - - - - - ",
"- - - - * * * * > 6 e t i u u s i e 2 % . o @ - - - - - - - 1 9 t u i u u s i 0 , % . O # - - - - - ",
"- - - * & & & & & & = = = = = = = = % O   O # - - - - - - - - ; = = = = = = = = % X . O & - - - - - ",
"- - - * & & & & @ @ O . . . o o o . . . o @ & - - - - - - - & @ O . . . o o o . . . o @ * - - - - - ",
"- - - * * * * * # @ O o o o o o o O O O @ @ * - - - - - - * & @ O o o o o o o O O O @ # * - - - - - ",
"- - - - - - - - * * # # # # # # # # # & & * - - - - - - * * & & # # # # # # # # # & * * - - - - - - ",
"- - - - - - - - - - - - - - - - - - - - - - - - - - - - * & & * - - - - - - - - - - - - - - - - - - ",
"- - - - - - - - - - - - - - - - - - - - - - - - - - - - & & & * - - - - - - - - - - - - - - - - - - ",
"- - - - - - - - - - - - - - - - - - - - - - - - - - - - & & & * - - - - - - - - - - - - - - - - - - ",
"- - - - - - - - - - - - - - - - - - - - - - - - - - - - * & & * - - - - - - - - - - - - - - - - - - ",
"- - - - - - - - - - - - - - - - - - - - - - - - - - - - * & & * - - - - - - - - - - - - - - - - - - "
};
