/* XPM */
static char *ad7mk_kw6au[] = {
/* columns rows colors chars-per-pixel */
"50 50 77 1 ",
"  c #231017",
". c #26121B",
"X c #28151F",
"o c #29181F",
"O c #2A1521",
"+ c #2C1A24",
"@ c #2F1A28",
"# c #321C2C",
"$ c #351F31",
"% c #391F35",
"& c #2F2128",
"* c #32242B",
"= c #372132",
"- c #392235",
"; c #392C35",
": c #3D253B",
"> c #3E2A3C",
", c #3E323B",
"< c #402A3E",
"1 c #40323F",
"2 c #443544",
"3 c #443B43",
"4 c #473448",
"5 c #48374A",
"6 c #473E48",
"7 c #4B3A4D",
"8 c #4F3F53",
"9 c #49424A",
"0 c #4F4952",
"q c #514255",
"w c #544659",
"e c #544C59",
"r c #58535E",
"t c #5D5565",
"y c #5D5C65",
"u c #615C6A",
"i c #63626C",
"p c #676572",
"a c #6A6677",
"s c #676872",
"d c #696975",
"f c #6D6B7B",
"g c #706D7E",
"h c #6F737D",
"j c #70727E",
"k c #727480",
"l c #747384",
"z c #757A85",
"x c #777C87",
"c c #787D88",
"v c #797F8A",
"b c #7A808B",
"n c #7B818C",
"m c #7C828E",
"M c #7D848F",
"N c #7F8692",
"B c #808893",
"V c #818995",
"C c #848C98",
"Z c #89919F",
"A c #8B94A2",
"S c #8C95A3",
"D c #8D97A5",
"F c #8E98A6",
"G c #909BA9",
"H c #93A0AD",
"J c #97A5B1",
"K c #9AA9B6",
"L c #9CABB8",
"P c #9DACB9",
"I c #9FAFBC",
"U c #9FB0BD",
"Y c #A7B9C7",
"T c #A8BBC8",
"R c #A9BCCA",
"E c #ABBECC",
"W c #ADC1CF",
/* pixels */
"::::::::::::::::::::::::::::::::::::::::::::::::::",
"::::::::::::::::::::::::::::::::::::::::::::::::::",
"::::::::::::::::::::::::::::::::::::::::::::::::::",
"::::::::::::::::::::::::::::::::::::::::::::::::::",
"::::::::::::::::::::::::::::::::::::::::::::::::::",
"::::::::::::::::::::::::::::::::::::::::::::::::::",
"::::::::::::::::::::::::::::::::::::::::::::::::::",
"::::::::::::::::::::::::::::::::::::::::::::::::::",
":::::::::---=====--::::::::::::--==$$=---:::::::::",
"::::::::-=#@@OOO@#=-::::::::::-=#@OOO@@#=-::::::::",
"::::::::-#+XXXXXXO#-::::::::::-#+XXXXXX+#-::::::::",
"::::::::=@XX*;;*oX@=::::::::::=@Xo*;;*XX@=::::::::",
"::::::::$O +3yy9& O#::::::::::#O &9yy3+ O$::::::::",
"::::::::$OX;yVCi,XO$::::::::::$OX,iCVy;XO$::::::::",
":::::::::=;0cKPMe;=-::::::::::-=;eMPKc0;=:::::::::",
"::::::::2quxHREJbiw4::::::::::4wibJERHxuq2::::::::",
"::::::-:8aCKYWWYKZfq>-::::::->qfZKYWWYKCa8:-::::::",
"::::::-:qgDPUPPUPGlw<-::::::-<wlGPUPPUPDgq:-::::::",
"::::::::7tjcczzccku7>:::::::::7ukcczzccjt7::::::::",
"::::::::<2399339964<::::::::::<4699339932<::::::::",
"::::::::-#@++++++@#-::::::::::-#@++++++@#-::::::::",
"::::::::-#OOXOOXXO#-:::::::::-$#OXXXOXOO#-::::::::",
":::::::::-$#######=-::::::::--=$#######$-:::::::::",
"::::::::::::::::::::::::::::-==-::::::::::::::::::",
":::::::::::::::::::::::::::-===-::::::::::::::::::",
":::::::::::::::::::::::::::--==-::::::::::::::::::",
"::::::::::::::::::::::::::::-==-::::::::::::::::::",
"::::::::::::::::::::::::::::-==-::::::::::::::::::",
"::::::::::::::::::::::::::::-==-::::::::::::::::::",
"::::::::::::::::::::::::::::-==-::::::::::::::::::",
":::::::::--=$$$$=--:::::::::-=====$$$$=--:::::::::",
"::::::::-=#@OOOO@#$-::::::::-=###@OOOO@#=-::::::::",
"::::::::-#OXXOOXXO#-::::::::-=#@OXXOOXX+#-::::::::",
"::::::::=@Xo*,,*+.@$::::::::-=#X o*,,*oX@=::::::::",
"::::::::$O +9ii9* X#::::::::-=@  *9ii9+ O$::::::::",
"::::::::$OX;iCZs,OO$::::::::-=#XX,sZCi;XO$::::::::",
":::::::::;,enPIBr1;:::::::::-===,rBIPne,;:::::::::",
"::::::::4epmJEWKNde5::::::::-:4edNKWEJmpe4::::::::",
"::::::-:qfZLYWWTPSgw>-::::::->qfSPTWWYLZf8:-::::::",
":::::-%:qfAKPKKPKFlw>-::::::->wlFKPKKPKAfq:-::::::",
"::::--$-4rdkkhhkkft7:::::::::>7tfkkhhkkdt5::::::::",
":::-====-;233333321>::::::::::>1233333321>::::::::",
":::-====##+OO+OXO+#-::::::::::=#+OX+OXO@#-::::::::",
":::-----$#OOOOOOOO#-:::::::::-$#OOOOOOOO#-::::::::",
"::::::::--$$####$$-:::::::::--=$$##$$$$$-:::::::::",
"::::::::::::::::::::::::::::-==-::::::::::::::::::",
":::::::::::::::::::::::::::-===-::::::::::::::::::",
":::::::::::::::::::::::::::-===-::::::::::::::::::",
"::::::::::::::::::::::::::::-==-::::::::::::::::::",
"::::::::::::::::::::::::::::-==-::::::::::::::::::"
};
