/* XPM */
static char *ah30g_5mcys[] = {
/* columns rows colors chars-per-pixel */
"50 50 150 2 ",
"   c #26131C",
".  c #28161F",
"X  c #29181F",
"o  c #2A1622",
"O  c #2B1922",
"+  c #2F1A28",
"@  c #331D2D",
"#  c #361E31",
"$  c #391F36",
"%  c #2F2028",
"&  c #322127",
"*  c #33232B",
"=  c #372132",
"-  c #392235",
";  c #3B2D35",
":  c #3D253B",
">  c #3E2A3B",
",  c #3D3037",
"<  c #3E313A",
"1  c #402A3F",
"2  c #41343C",
"3  c #432C41",
"4  c #453344",
"5  c #453A42",
"6  c #4A3D44",
"7  c #4B3B4B",
"8  c #4F3D50",
"9  c #523E52",
"0  c #4E4046",
"q  c #4C424C",
"w  c #514348",
"e  c #4D4750",
"r  c #534255",
"t  c #554D56",
"y  c #55465B",
"u  c #594659",
"i  c #554959",
"p  c #5B4C5C",
"a  c #55525A",
"s  c #5B535D",
"d  c #615459",
"f  c #5A4D61",
"g  c #5E5760",
"h  c #5F5862",
"j  c #604F61",
"k  c #645364",
"l  c #695767",
"z  c #625B65",
"x  c #645C6A",
"c  c #73696D",
"v  c #6E6577",
"b  c #696B74",
"n  c #6F6778",
"m  c #6C6F78",
"M  c #756472",
"N  c #776973",
"B  c #796877",
"V  c #736C7C",
"C  c #6E717B",
"Z  c #74727D",
"A  c #757483",
"S  c #797481",
"D  c #777B84",
"F  c #7B7A85",
"G  c #797788",
"H  c #7B7C8C",
"J  c #7D7E90",
"K  c #827E82",
"L  c #817F8B",
"P  c #807F90",
"I  c #7D818E",
"U  c #7F8292",
"Y  c #8B8487",
"T  c #83828E",
"R  c #8C878A",
"E  c #8D898D",
"W  c #858492",
"Q  c #8C8795",
"!  c #8D8996",
"~  c #8B8D9B",
"^  c #928691",
"/  c #948B94",
"(  c #988E99",
")  c #8C929E",
"_  c #979092",
"`  c #9B9497",
"'  c #93919E",
"]  c #9B919A",
"[  c #8E96A4",
"{  c #8F99A5",
"}  c #9395A2",
"|  c #9E97A2",
" . c #9699A6",
".. c #969CA9",
"X. c #999EAB",
"o. c #A097A2",
"O. c #A39AA4",
"+. c #9AA1AE",
"@. c #97A3B1",
"#. c #9CA5B3",
"$. c #9DA9B6",
"%. c #9EACBB",
"&. c #A7A3AD",
"*. c #A8A6B0",
"=. c #ADAAB3",
"-. c #A1ADBB",
";. c #A3B1BF",
":. c #ABB3BC",
">. c #A4B4C1",
",. c #ADB6C1",
"<. c #A7B9C7",
"1. c #A9B9C7",
"2. c #AABCC9",
"3. c #B1B9C4",
"4. c #BCBCC3",
"5. c #B6BEC8",
"6. c #C1BFC4",
"7. c #ADC1CF",
"8. c #BDC1C6",
"9. c #BBC3CC",
"0. c #AFC3D1",
"q. c #B3C6D3",
"w. c #B4C9D6",
"e. c #B8CAD6",
"r. c #B4CBD8",
"t. c #B6CBD8",
"y. c #B7CCD9",
"u. c #C1C0C3",
"i. c #C5C4C7",
"p. c #C1C3CA",
"a. c #C0C4CB",
"s. c #CAC8C9",
"d. c #CAC9CC",
"f. c #CFCDCE",
"g. c #C7C9D0",
"h. c #C8C9D0",
"j. c #CDCCD1",
"k. c #CCCFD4",
"l. c #C7D2DB",
"z. c #CFD3D8",
"x. c #C9D5DD",
"c. c #D2D0D3",
"v. c #D2D6DB",
"b. c #C2D5E0",
"n. c #C5D6E0",
"m. c #C4D7E1",
"M. c #CAD9E1",
"N. c #CDDCE4",
"B. c #D7E1E7",
"V. c #D8E1E7",
/* pixels */
": : : : : : : : : $ : p ] f.f._ w O o # : : : : : : : : : : : $ > k O.c.s.R 5 . o # : : : : : : : : ",
": : : : : : : : : $ : p ( d.d./ w O o # : : : : : : : : : : : $ > k o.j.i.Y 5 . o # : : : : : : : : ",
": : : : : : : : : # : u Q 4.8.R 6 .   @ : : : : : : : : : : - # : p ' p.4.K 2   o # : : : : : : : : ",
": : : : : : : : : # $ r L :.:.F 5     @ : : : : : : : : : : - # : y Q ,.:.Z 2   o # : : : : : : : : ",
": : : : : : : : : : 1 y H -.$.D 6 O o # : : : : : : : : : : : : 3 f W -.@.Z 2 O O # : : : : : : : : ",
": : : : : : : : 3 9 k V } -.%.I a 2 - = - - : : : : : : : : 3 9 k S } ;.$.H t < - = - - : : : : : : ",
": : : : : : - : 9 M / &.,.2.;.[ Z g 7 ; @ @ - : : : : : - 1 r B ( *.,.2.%.) V s 7 - @ @ - : : : : : ",
": : : : : : $ : p ^ 4.z.l.q.<.#.) S s ; O O # : : : : : $ 1 k ( 6.z.l.q.<.@.~ Z t ; O O # : : : : : ",
": : : : : : $ > j ( h.V.N.e.2.-.X.W z < O o @ : : : : : $ 3 l | k.V.M.w.2.-.X.T g ; . o # : : : : : ",
": : : : : : $ > p ! 9.M.m.w.2.;.+.W z < O o @ : : : : : $ 3 k ' 9.M.b.q.2.;.X.T g ; . o # : : : : : ",
": : : : : : $ : y L ;.w.y.q.2.-.X.W z < O o @ : : : : : $ 1 f W ,.w.t.0.2.-...L s ; o o # : : : : : ",
": : : : : : $ : y H %.7.0.2.>.-...T z < O o @ : : : : : $ 1 f U -.0.0.2.>.$. .L s ; o o # : : : : : ",
": : : : : : $ : y H %.2.2.-.#.+. .T z < O o @ : : : : : $ 1 f U %.2.2.-.#.+.} L g ; o o # : : : : : ",
": : : : : : $ : y H %.2.>.@. . .} T z < O o @ : : : : : $ 1 f U %.2.;.+. . .} L g ; o o # : : : : : ",
": : : : : : - : y G #.>.-...} } } T z < O o @ : : : : : - 1 p J $.>.$. .' } } L h ; o o # : : : : : ",
": : : : : : - : r A ..-.#. .}  . .W x 2 O o @ : : : : : - 1 y G X.-.#. .}  .} T z ; o o # : : : : : ",
": : : : : : - : 9 n ~ X.X.} }  .} W x 2 O o @ : : : : : - 1 r V ~ X...} }  .} T z ; o o # : : : : : ",
": : : : : : : : 7 x S W W T T W W S s ; O o @ : : : : : : > 8 x F W W T T W W Z t ; . o # : : : : : ",
": : : : : : : : 4 r s z z h h z z s 6 * . o # : : : : : : : 4 r g z z z z z z a 5 & . O # : : : : : ",
": : : : : : : : : ; < < < ; ; < < ; * O   O # : : : : : : : > ; < < < ; ; < 2 ; & O . O = : : : : : ",
": : : : : : : : - @ O O & * * & O .     . + = : : : : : : : - @ O O % * * + O       o @ = : : : : : ",
": : : : : : : : - @ O * 6 d d 6 &     o O @ - : : : : : : - # @ O * 5 e q , O     o @ # - : : : : : ",
": : : : : : : : - # # 7 N ] ` c 2     + = - : : : : : : - - # @ = 4 x D A a *     @ = - : : : : : : ",
": : : : : : : : : $ : u / 6.u.R 0 O o @ : : : : : : : : - = # # : y H @...b < . o # : : : : : : : : ",
": : : : : : : : : # : u / p.a.E 6 .   # : : : : : : : : - = @ @ : y W -.#.C <   o # : : : : : : : : ",
": : : : : : : : : # - r P ,.,.F 5     # : : : : : : : : - = @ @ : y U %.@.m ,   o # : : : : : : : : ",
": : : : : : : : : : 3 p P %.$.D 6 + O # : : : : : : : : = = = - 3 f W %.@.C 5 O O = : : : : : : : : ",
": : : : : : : : 4 r l S } ;.%.U g 5 ; = = - : : : : : - = = > 7 f V [ >.$.I a 2 - = = - : : : : : : ",
": : : : : : - : r B ] =.3.2.>.{ D z q ; @ @ - : : : : - # - 7 x H [ %.<.;.[ A z 7 ; @ @ - : : : : : ",
": : : : : : $ : p ^ 6.v.x.q.1.$.} F s < O O # : : : : - @ - r A @.2.0.7.<.$.) S s ; O O # : : : : : ",
": : : : : : $ > j ( g.B.N.e.2.;.X.W z < O o @ : : : : - @ - i I ;.w.t.0.2.-.X.T g ; . o # : : : : : ",
": : : : : : $ : p Q 5.m.b.w.2.;.+.W z < O o @ : : : : - @ - i U >.w.t.0.2.;.X.T g ; . o # : : : : : ",
": : : : : : $ : y H -.w.t.0.2.-.X.W z < O o @ : : : : - @ - i H %.q.w.0.1.-...L s ; o o # : : : : : ",
": : : : : : $ : y H %.7.0.2.>.$...T z < O o @ : : : : - @ - i H %.0.0.1.;.$. .L s ; o o # : : : : : ",
": : : : : : $ : y H %.2.2.-.#.+. .T z < O o @ : : : : - @ - i I ;.7.2.-.#.X.} L g ; . o # : : : : : ",
": : : : : : $ : y H %.2.;.+. . .} T z < O o @ : : : : - @ - i I %.2.;.X. . .} L g ; o o # : : : : : ",
": : : : : : - : y G @.>.-. .' } } T z < O o @ : : : : - # - i H #.>.$. .' } } L h ; o o # : : : : : ",
": : : : : : - : r A  .-.#. .}  . .W x 2 O o @ : : : : - # : y A ..-.#. .}  .} T z ; o o # : : : : : ",
": : : : : : - : 9 v ! .. .} ' } } T z < O o @ : : : : : - : r V ~ .. .} } } } L h ; o o # : : : : : ",
": : : : : : - : 7 k Z L T L L T T Z s ; O o @ : : : : : : > 7 x S T T L L T L V t ; . o # : : : : : ",
": : : : - - - - 1 7 t g h g g z h t 5 & . o # : : : : : : : 4 r s g h g g z h t 2 & . O # : : : : : ",
": : : - = = = = = - ; ; ; ; ; ; ; ; & O   O # : : : : : : : : > ; ; ; ; ; ; ; ; & X . O = : : : : : ",
": : : - = = = = @ + O o . o o o o . . . o @ = : : : : : : : = @ O . . . o o o . . . o @ - : : : : : ",
": : : - - - - - # @ O o o o o o o O O O @ @ - : : : : : : - = @ O o o o o o o O O O @ # - : : : : : ",
": : : : : : : : - - # # # # # # # # # = = - : : : : : : - - = = # # # # # # # # # = - - : : : : : : ",
": : : : : : : : : : : : : : : : : : : : : : : : : : : : - = = - : : : : : : : : : : : : : : : : : : ",
": : : : : : : : : : : : : : : : : : : : : : : : : : : : = = = - : : : : : : : : : : : : : : : : : : ",
": : : : : : : : : : : : : : : : : : : : : : : : : : : : = = = - : : : : : : : : : : : : : : : : : : ",
": : : : : : : : : : : : : : : : : : : : : : : : : : : : - = = - : : : : : : : : : : : : : : : : : : ",
": : : : : : : : : : : : : : : : : : : : : : : : : : : : - = = - : : : : : : : : : : : : : : : : : : "
};
