/* XPM */
static char *a7gxx_u2xsr[] = {
/* columns rows colors chars-per-pixel */
"50 50 185 2 ",
"   c None",
".  c #1D080F",
"X  c #1B070D",
"o  c #1E0B12",
"O  c #200D14",
"+  c #200F18",
"@  c #231017",
"#  c #291317",
"$  c #25131A",
"%  c #29161C",
"&  c #27191E",
"*  c #2B191E",
"=  c #321B1E",
"-  c #391D1E",
";  c #3E211F",
":  c #271C21",
">  c #2B1B22",
",  c #341E21",
"<  c #391F20",
"1  c #2C2125",
"2  c #2E2529",
"3  c #2E292C",
"4  c #332124",
"5  c #3A2323",
"6  c #33242C",
"7  c #322B2D",
"8  c #3A292B",
"9  c #2F2F32",
"0  c #362B31",
"q  c #3A2C34",
"w  c #3B2F38",
"e  c #353435",
"r  c #3A3534",
"t  c #373837",
"y  c #383837",
"u  c #363738",
"i  c #3D323A",
"p  c #373838",
"a  c #393939",
"s  c #412524",
"d  c #442926",
"f  c #4B2925",
"g  c #452D2A",
"h  c #4C2E29",
"j  c #522C25",
"k  c #512D28",
"l  c #40302E",
"z  c #4C312D",
"x  c #53322C",
"c  c #5B362D",
"v  c #433333",
"b  c #4B3A35",
"n  c #41353E",
"m  c #4B373A",
"M  c #443C39",
"N  c #4C3F39",
"B  c #573730",
"V  c #583831",
"C  c #583D37",
"Z  c #60362C",
"A  c #693B2F",
"S  c #643D32",
"D  c #4E413C",
"F  c #53433B",
"G  c #5C4037",
"H  c #654136",
"J  c #6B4336",
"K  c #654439",
"L  c #6D493C",
"P  c #69483C",
"I  c #7C4836",
"U  c #734B3C",
"Y  c #7F4D3B",
"T  c #734335",
"R  c #7A503F",
"E  c #443A43",
"W  c #4A3E46",
"Q  c #473F48",
"!  c #4A3F48",
"~  c #434246",
"^  c #4B424B",
"/  c #4A4B4E",
"(  c #45454A",
")  c #5F4847",
"_  c #50454F",
"`  c #4D4750",
"'  c #4E4952",
"]  c #514750",
"[  c #534A54",
"{  c #544E58",
"}  c #584F59",
"|  c #5D4F55",
" . c #4C5154",
".. c #56525C",
"X. c #5A535D",
"o. c #525256",
"O. c #634843",
"+. c #744C40",
"@. c #755343",
"#. c #7D5342",
"$. c #7C584B",
"%. c #625453",
"&. c #78615C",
"*. c #5C5660",
"=. c #5C5C65",
"-. c #5D5D68",
";. c #575862",
":. c #625B65",
">. c #645E68",
",. c #63616C",
"<. c #6A646F",
"1. c #6D686F",
"2. c #66656A",
"3. c #676671",
"4. c #6B6671",
"5. c #6B6A74",
"6. c #6D6F7A",
"7. c #706C77",
"8. c #716E79",
"9. c #6E727C",
"0. c #74737E",
"q. c #78757C",
"w. c #7F7274",
"e. c #844D39",
"r. c #8F543E",
"t. c #845947",
"y. c #915741",
"u. c #965A43",
"i. c #925F48",
"p. c #9D5F45",
"a. c #996047",
"s. c #A36146",
"d. c #A2654A",
"f. c #806762",
"g. c #847475",
"h. c #747681",
"j. c #797581",
"k. c #757984",
"l. c #7B7985",
"z. c #7A7D89",
"x. c #807E89",
"c. c #768289",
"v. c #7A828D",
"b. c #7E8591",
"n. c #7F8895",
"m. c #83828E",
"M. c #848592",
"N. c #838A95",
"B. c #8A8A97",
"V. c #858D99",
"C. c #8D8E9A",
"Z. c #888794",
"A. c #928C93",
"S. c #86919D",
"D. c #8B919E",
"F. c #90919E",
"G. c #8C95A1",
"H. c #8E99A6",
"J. c #9496A3",
"K. c #9499A6",
"L. c #949DAA",
"P. c #999DAB",
"I. c #94A1AD",
"U. c #9AA0AE",
"Y. c #9AA1AE",
"T. c #96A3B0",
"R. c #96A4B1",
"E. c #99A5B2",
"W. c #9BA5B3",
"Q. c #9AA8B5",
"!. c #9BA9B6",
"~. c #9CABB8",
"^. c #9FAFBC",
"/. c #9EADBA",
"(. c #9FB3BF",
"). c #A2ADBB",
"_. c #A1A9B7",
"`. c #A2B0BE",
"'. c #A4B4C2",
"]. c #A6B8C6",
"[. c #A8B9C7",
"{. c #A7BAC8",
"}. c #AABCCA",
"|. c #AFC2D0",
" X c #B2C6D4",
/* pixels */
"                                      o o o o O O O O O O O O O O O O O O                           ",
"                                      > > > > > > > > > > > > > > > > > > >                         ",
"                                    i ^ ^ ^ W E E E E E E E E E E E E E n i                         ",
"                                  > ` 5.k.k.8.4.<.<.<.<.<.<.<.<.<.4.4.<.:.^ 0 @                     ",
"                                $ q =.V.Q.E.D.M.m.m.m.m.m.m.m.m.m.M.M.m.8.[ 0 @                     ",
"                              q E [ 9.K.`.E.B.l.0.0.0.0.0.l.q.0.0.0.l.h.,.^ 6 @ o                   ",
"                            0 [ 3.z.D.U.Y.N.3.} _ ^ _ ] [ [ [ ] _ ] [ [ ! q * O .                   ",
"                          @ q =.V.Q./.Y.C.5.^ 0 > 6 6 6 6 6 6 6 6 6 6 6 , > * $ $                   ",
"                        . @ q :.G.'.'.Y.M.>.n > > 0 i q > $ > 6 i q 6 $ & 6 i E i                   ",
"                        . @ 0 *.N.!._.P.M.:.i > q { ,...i > 6 ` ,.=.E > 2 ~ ,.5.*.i                 ",
"                        o @ 6 } l.J.P.K.M.>.n 6 ^ k.G.z.` 6 n 5.D.N.X.0 q =.V.G.6.E $               ",
"                          @ 6 [ l.F.P.P.C.,.n 6 [ N.^.D...6 E k./.L.,.q i 5.T.Q.h.E $ .             ",
"                          @ 6 [ 0.F.W._.K.5.n 6 ` V.'.G...6 E k.^.I.,.0 q 5.E./.h.E $ .             ",
"                          @ 6 [ q.J._.'.Q.h.E 6 [ N.^.S...6 E k.~.L.,.q i 5.T.Q.h.E $ .             ",
"                          @ 6 [ l.J.).}.'.N...E =.D.`.H.,.Q ..b.^.T.9.^ ` h.Q.Q.0.E $ .             ",
"                          @ 6 [ l.K.`.}.{.I.z.6.v.R.].Q.N.0.v.U.{.'.S.9.h.H.].~.0.E $ .             ",
"                          @ 6 [ l.J.).[.}.'.Q.U.Q.'.}.]./.T.Q.'.}.}.^.T.R.'.}.Q.9.E $ .             ",
"                          @ 6 ^ 5.Z.P.).}.}.}.[.}.}.}.].`./.Q.Q./.).'.].].].`.H.3.n $ .             ",
"                          @ > i [ <.m.P.).'.'.'.'.`./.L.V.v.h.0.h.b.K.).).L.b.9...i $               ",
"                          @ * > q W ,.M.P.W.W.P.Y.Y.K.m.,.` E i E X.h.G.D.0...E i                   ",
"                          @ $ @ $ 6 ] 7.M.C.F.F.J.J.C.0.{ q > > 6 E >.l.0.X.q & @                   ",
"                          @ $ $ & 2 n { <.l.M.F.J.J.C.l.:.^ E E W ] X.:.X.n > O X                   ",
"                          @ $ > 2 7 0 i W :.l.C.J.J.F.Z.l.7.5.7.7.<.X.W w 6 * @ O                   ",
"                        @ @ & 1 0 e 3 > 6 ^ 5.M.C.C.B.B.C.C.C.C.m.8.[ q > $ $ @ @                   ",
"                        O O $ 1 e e 7 1 2 E =.6.0.5.5.l.D.P.K.M.8.*.E 6 & @ @ O O                   ",
"                    O O o O $ 1 e e e 7 7 a / o.` W ^ >.N.Q.K.0.[ i 0 7 1 & @ O O @ @               ",
"                  > > > > > > 6 e e e e e a a a 0 6 q ..M.!.H.3.n 6 7 e e 7 1 > * $ @ @             ",
"                  w n E ! ^ ^ E e 0 e e e e 7 7 7 q E :.N.E.K.h...~ a a a ~ ^ E q > $ @             ",
"              $ q ^ :.4.h.z.9...i 2 2 e e 7 1 1 i [ ,.l.C.P.P.G.b.9...~ ~ =.9.6.} q $ O             ",
"            o $ q X.l.D.E./.H.5.n > > 7 e 3 > 1 E >.z.B.F.J.P.!.Q.S.3.( ' 9.H.H.5.n $ o             ",
"            o $ q X.m.Y.}.|./.h.E & & 3 e 3 1 1 n X.0.m.D.K.P.U.H.v.=.~  .c././.k.E $ o             ",
"            o $ q *.M.W.}. X`.k.E & & 3 e e 3 3 q E { 5.V.U.L.b.3...~ a  .v.(.`.k.E $ o O @         ",
"            o $ q X.x.P.'.[.E.9.E > > 7 t y t e 7 2 q ..M.Q.H.5.E 6 2 e  .c.Q.E.h.E * O @ @ @       ",
"            o $ q | g.A.K.K.N.=.i & 4 r N F F F l * > ` b.^.H.-.6 % 5 b %.q.V.N.5.W 5 * % @ @       ",
"            o $ 8 ) f.g.g.1.*.E 6 * 5 C P @.t.#.S ; > ` n.'.L.-.6 = j U t.&.2.:.%.O.V d = $ @       ",
"            o $ 5 C $.$.O.m 0 > $ * g K #.a.d.s.I f 4 ` b./.H.-.7 s A u.u.+.m v C L L c 5 % @       ",
"            @ $ 5 x J J x = @ @ $ 4 z K #.i.d.a.I f , E 6.S.v...0 d J u.y.S 5 = h H L B 5 * @       ",
"            @ $ = s z h ; # O $ > 7 v F P @.#.@.S s > 0 ' -.;.( 0 l G U L x = # < z x d , $ @       ",
"            @ @ * * , , * $ $ > 3 e r M M D D N l 4 * > 6 q i e e t M N b 8 * $ * , , = * @ @       ",
"              @ @ @ @ $ $ $ > 2 e e a t e p a e 7 > $ % = 5 5 8 e e e e e 7 > & $ $ @ @ @ @ @       ",
"                @ @ @ $ : 1 2 0 e a p u e e u e 3 : * - j Z c h 7 3 9 e e 7 2 1 > $ @ @ @ @         ",
"                  @ @ $ 1 7 e e e p p p e p p e 3 : * f T r.e.c 4 1 3 e e e e 7 1 & @ @             ",
"                  @ @ & 2 e e a p p e t e a a e 3 : * k e.s.u.S , & 2 e e a e e 2 > @ @             ",
"                  @ @ & 2 e a a a e e e e a a e 3 : * h Y p.r.Z = & 1 e t a a e 2 > $ @             ",
"                  @ @ & 2 e t a a e e e e a a e 3 : & f T y.Y c = & 2 e p a p e 2 > $ @             ",
"                    @ & 2 e e a p e e e e a a e 3 > & d J #.U x = & 2 e t a t e 2 > $ @             ",
"                    @ & 2 e e p t e e e e p a e 3 > & s H R U z , : 2 e t a p e 2 > $               ",
"                                                                                                    ",
"                                                                                                    ",
"                                                                                                    "
};
