/* XPM */
static char *aq34n_36zrc[] = {
/* columns rows colors chars-per-pixel */
"50 50 178 2 ",
"   c None",
".  c #1C080F",
"X  c #1B060D",
"o  c #1E0B12",
"O  c #200D14",
"+  c #200F18",
"@  c #231017",
"#  c #291317",
"$  c #25131A",
"%  c #28171D",
"&  c #27191E",
"*  c #2A191E",
"=  c #321B1E",
"-  c #3B1F1E",
";  c #3C201F",
":  c #271C21",
">  c #2B1B22",
",  c #331E22",
"<  c #391F20",
"1  c #2C2126",
"2  c #2E2529",
"3  c #2E292C",
"4  c #332125",
"5  c #3B2323",
"6  c #33252C",
"7  c #322B2E",
"8  c #3C2A2A",
"9  c #2E2E31",
"0  c #362B31",
"q  c #3A2D35",
"w  c #353435",
"e  c #393436",
"r  c #373837",
"t  c #393837",
"y  c #3D333A",
"u  c #373838",
"i  c #39393A",
"p  c #402625",
"a  c #442926",
"s  c #492925",
"d  c #432C2A",
"f  c #4D2E29",
"g  c #49332F",
"h  c #52322C",
"j  c #58372F",
"k  c #423435",
"l  c #473A36",
"z  c #493935",
"x  c #41353D",
"c  c #443C39",
"v  c #4C3E39",
"b  c #48373A",
"n  c #573730",
"m  c #5C3A31",
"M  c #5B3E39",
"N  c #503A34",
"B  c #6C3D2F",
"V  c #6A3E32",
"C  c #4F413B",
"Z  c #5E4036",
"A  c #53433C",
"S  c #58463D",
"D  c #664135",
"F  c #6B4336",
"G  c #674539",
"H  c #6E493C",
"J  c #69473B",
"K  c #734B3C",
"L  c #774635",
"P  c #79503F",
"I  c #3C3C40",
"U  c #443740",
"Y  c #443B43",
"T  c #4D3E44",
"R  c #473F48",
"E  c #493F48",
"W  c #45444A",
"Q  c #4C434C",
"!  c #46484C",
"~  c #454749",
"^  c #5F4847",
"/  c #50464F",
"(  c #4D4750",
")  c #4D4A51",
"_  c #514751",
"`  c #544B55",
"'  c #554F59",
"]  c #584F59",
"[  c #5D4F55",
"{  c #4E5255",
"}  c #56535C",
"|  c #5B525C",
" . c #684C40",
".. c #644843",
"X. c #7C5341",
"o. c #795548",
"O. c #655455",
"+. c #5D5661",
"@. c #5C5A63",
"#. c #5D5D68",
"$. c #625B65",
"%. c #655F69",
"&. c #5D6368",
"*. c #64626C",
"=. c #69646E",
"-. c #6D686F",
";. c #666671",
":. c #6B6671",
">. c #656972",
",. c #6A6A75",
"<. c #6D6E79",
"1. c #706C77",
"2. c #726E79",
"3. c #6E717C",
"4. c #74737E",
"5. c #7F7274",
"6. c #825642",
"7. c #855A45",
"8. c #8C5A45",
"9. c #945A42",
"0. c #9F6146",
"q. c #A86649",
"w. c #A76649",
"e. c #B16B4C",
"r. c #806762",
"t. c #847475",
"y. c #6F7581",
"u. c #6F7980",
"i. c #737581",
"p. c #797682",
"a. c #757A85",
"s. c #7B7985",
"d. c #7B7D88",
"f. c #817F8B",
"g. c #7B838D",
"h. c #7E8692",
"j. c #7F8894",
"k. c #82818D",
"l. c #848591",
"z. c #838995",
"x. c #898A97",
"c. c #858C99",
"v. c #8B8D9A",
"b. c #928C93",
"n. c #86909C",
"m. c #8D909D",
"M. c #90919F",
"N. c #8B95A1",
"B. c #8E9AA6",
"V. c #8F9CA8",
"C. c #9396A3",
"Z. c #9499A5",
"A. c #939DAA",
"S. c #989CA9",
"D. c #999FAC",
"F. c #95A1AE",
"G. c #95A1AE",
"H. c #9AA1AE",
"J. c #96A4B1",
"K. c #98A6B3",
"L. c #9BA5B3",
"P. c #97A8B3",
"I. c #9CA9B6",
"U. c #9CABB8",
"Y. c #9EADBB",
"T. c #9EB0BC",
"R. c #A2ACBA",
"E. c #A1B0BE",
"W. c #A2B1BE",
"Q. c #A6B3C1",
"!. c #A4B4C2",
"~. c #A8B6C4",
"^. c #A7B8C6",
"/. c #A8BAC7",
"(. c #AABCCA",
"). c #ACC0CD",
"_. c #AFC2D0",
"`. c #B2C6D4",
/* pixels */
"                                                                                                    ",
"                                                                                                    ",
"                                                                                                    ",
"                                        o o o o o o o o o o o o o o o o                             ",
"                                      > > * % % % % % % % % % % % % % % %                           ",
"                                    y Y R Y U x x x x x x x x x x x x x x q                         ",
"                                  > Q ;.4.4.:.*.%.%.%.%.%.%.%.%.%.*.*.%.+.Q 0 @                     ",
"                                @ 0 +.z.J.G.v.k.f.f.k.k.k.k.k.k.k.k.l.k.1.` 0 @                     ",
"                              0 y ( <.B.W.L.v.s.p.p.p.p.p.s.s.p.p.s.s.s.;.Q 6 @ o                   ",
"                            0 ) *.i.c.G.J.v.1.| ` ` ` ` ] | ] ` ` ` | | Q q > O .                   ",
"                          @ q @.z.J.I.H.v.1._ q 6 6 6 6 6 6 6 6 6 6 6 6 6 > % @ @                   ",
"                        . @ q $.N.Q.Q.H.l.%.x > > 6 q 0 > % > 6 q 0 2 % * 6 q y y                   ",
"                        . @ 0 +.c.R.R.S.k.$.y > 0 ) #.` q > 6 Q @.} x > > R +.*.} y                 ",
"                        o @ 6 ] d.Z.D.Z.l.%.x 6 Q 4.n.a.Q 6 y ;.c.g.} 0 q +.z.n.,.U %               ",
"                          @ 6 ` p.M.S.S.x.*.x 6 ` z.Y.n.} 6 R a.I.A.*.q y ,.G.K.4.U % .             ",
"                          @ 6 ` 4.M.L.L.Z.,.x 6 ) c.!.N.} 6 Y a.Y.F.*.0 q ,.L.U.i.U % .             ",
"                          @ 6 ` 4.C.R.Q.L.i.Y 6 ) z.Y.n.} 6 Y a.U.A.*.0 y ,.J.I.i.U % .             ",
"                          @ 6 ` p.C.R.(.W.h.} U +.n.T.N.*.U ` g.Y.G.<.R Q i.L.K.4.U % .             ",
"                          @ 6 ` p.Z.W.(.^.A.a.>.d.G.^.K.h.,.a.A.^.T.c.,.3.N.!.I.4.U % .             ",
"                          @ 6 ` p.Z.R.(.(.!.J.A.J.!.(.^.I.A.J.!.).(.Y.A.F.!.(.I.3.U % .             ",
"                          @ 6 Q 1.x.H.W.(.(.(.^.(.(.(.^.!.Y.Y.Y.W.!.Q.^.^./.!.A.,.x % .             ",
"                          @ > x ] ,.l.D.W.~.~.Q.Q.Q.R.G.N.z.g.a.d.z.D.W.R.G.z.i.+.y %               ",
"                          @ % , q Q =.z.D.L.L.J.L.L.A.z.;.` Q R Q +.d.Z.C.s.+.Q x                   ",
"                        @ @ @ @ % 0 ` 1.x.M.C.C.C.Z.v.4.` q > > 6 Y *.d.p.| y > $                   ",
"                        O O @ @ & 6 U | :.s.l.M.C.C.v.p.$.E x x Y Q | %.| U > o X                   ",
"                    O O O O @ & 2 7 q x Q $.s.v.Z.Z.M.l.p.:.=.:.:.%.| Q y , @ o o O @               ",
"                  > > > > > > 6 0 w 6 2 6 / 1.x.m.v.x.x.x.x.x.x.k.1.` q > > > > % % @ @             ",
"                  q x Y E Q Q Y e 7 1 & 2 Y #.4.4.1.1.s.m.S.Z.x.4.$.R 6 2 q R R q > $ @             ",
"              % 0 Q $.;.p.a.3.} y 2 > 1 7 i ) } ` Q Q *.c.L.Z.4.` x 0 7 y } 3.<.] 0 % O             ",
"            o % q | p.m.L.Y.B.,.x > : 3 w i i i w 6 0 } z.I.B.;.x 2 2 w ) u.V.B.,.x % o             ",
"            o % q | k.H.(._.Y.i.U * & 7 w w w 7 7 0 x @.z.L.A.4.` U w i { g.T.Y.a.U % o             ",
"            o % q +.l.L.(.`.W.a.U * & 7 w 7 2 2 e Q $.p.v.S.S.m.g.>.{ ~ { g.W.T.a.Y $ o O @         ",
"            o % q | f.S.Q.(.L.3.U > > 7 w 3 > 2 Y $.s.x.m.C.D.L.L.n.*.~ { a.J.L.i.Y % O @ @ @       ",
"            o % 0 [ t.b.Z.Z.z.#.y * > 3 w 3 1 2 x +.4.l.m.Z.S.H.A.h.&.~ ~ >.z.z.:.T 5 * % $ @       ",
"            o $ 8 ^ r.t.5.-.+.R 6 % > 3 w 9 3 3 w R | 1.v.G.A.z.3.@.! i I ) +.$.O...n a = $ @       ",
"            o $ 5 M o.o...b 0 > % & 2 7 w w w w 7 6 q | z.I.B.,.R 0 0 w w w q k M H H j 5 % @       ",
"            @ $ 4 h F F h = @ @ % > 8 l C A A v 8 * > ( h.Y.B.#.6 * 5 z z 8 * = f D H n 5 % @       ",
"            @ $ = p f f ; # O $ > 7 N H X.7.7.X.m - > Q z.!.A.#.6 = h K H h = # 5 f h a , $ @       ",
"            @ @ % * , , * $ % : 3 k J 8.w.e.e.0.L s , ( h.Y.B.#.6 5 B 9.9.V 5 @ % , , = % $ @       ",
"              @ @ @ @ $ % % > 2 w c  .8.q.e.e.w.L f 6 W i.N.h.+.0 a F 9.9.F p & @ $ @ @ @ @ @       ",
"                @ @ @ $ : 1 2 7 w c S X.6.8.8.X.G g 7 I } ;.#.W 0 d Z P K Z 8 1 : $ @ @ @ @         ",
"                  @ @ & 1 7 w w w i c C A S A A v e w w y y y e w e l A A c e 7 1 & @ @             ",
"                  @ @ * 2 w w i u r r i r r i r w w w 7 4 4 4 7 w w w t r i w w 2 > $ @             ",
"                  @ @ * 2 w u i i w w w w w w w w 7 7 8 d s a 8 7 3 0 w w u u w 2 > @ @             ",
"                  @ @ * 2 w w i i w w w w w w w 7 2 2 8 n D m f 4 1 3 w w u u w 2 > $ @             ",
"                    @ * 2 w w u u w w w w i i w 3 > * a D P K h , : 2 w r i r w 2 > $ @             ",
"                    @ * 2 w w u u w w w w u u w 3 : % a F 6.K h = & 1 w r i u w 2 > $               ",
"                                                                                                    ",
"                                                                                                    ",
"                                                                                                    "
};
