/* XPM */
static char *apylg_vxixn[] = {
/* columns rows colors chars-per-pixel */
"50 50 181 2 ",
"   c None",
".  c #1C080F",
"X  c #1E0C13",
"o  c #1F0F18",
"O  c #210E14",
"+  c #220F18",
"@  c #231117",
"#  c #25131A",
"$  c #29161D",
"%  c #27181E",
"&  c #2A191E",
"*  c #321B1E",
"=  c #391F1F",
"-  c #3C201E",
";  c #2B1C22",
":  c #2D1F28",
">  c #271B21",
",  c #341E21",
"<  c #2D2226",
"1  c #2E2529",
"2  c #2F2A2D",
"3  c #272226",
"4  c #342325",
"5  c #3C2323",
"6  c #33252C",
"7  c #322A2D",
"8  c #3C2A2A",
"9  c #2F2E30",
"0  c #362A31",
"q  c #3A2D35",
"w  c #353535",
"e  c #3B3334",
"r  c #373837",
"t  c #373739",
"y  c #3D323A",
"u  c #373838",
"i  c #393939",
"p  c #442927",
"a  c #492A26",
"s  c #432B29",
"d  c #4A2D29",
"f  c #422726",
"g  c #4D302C",
"h  c #42302E",
"j  c #52322C",
"k  c #402E32",
"l  c #433236",
"z  c #483530",
"x  c #4A3A35",
"c  c #41343D",
"v  c #453C3C",
"b  c #4A3C37",
"n  c #573730",
"m  c #5C3B33",
"M  c #513838",
"N  c #573A34",
"B  c #6C3D2E",
"V  c #643F34",
"C  c #6B3F32",
"Z  c #4D413C",
"A  c #664135",
"S  c #694337",
"D  c #694539",
"F  c #644A3E",
"G  c #6B4A3D",
"H  c #634339",
"J  c #784837",
"K  c #7A4738",
"L  c #71493C",
"P  c #794D3E",
"I  c #7B4735",
"U  c #7A503F",
"Y  c #3F3741",
"T  c #423740",
"R  c #443A42",
"E  c #493F47",
"W  c #473F48",
"Q  c #493F48",
"!  c #513F41",
"~  c #3C4043",
"^  c #444245",
"/  c #46464B",
"(  c #4C434C",
")  c #46494B",
"_  c #5B4344",
"`  c #50464F",
"'  c #5F514C",
"]  c #4D4750",
"[  c #4D4A51",
"{  c #514750",
"}  c #544B55",
"|  c #574F59",
" . c #584F59",
".. c #5D4E53",
"X. c #4F5358",
"o. c #56525B",
"O. c #5B535C",
"+. c #595B5F",
"@. c #634741",
"#. c #644B46",
"$. c #7C5443",
"%. c #755346",
"&. c #645151",
"*. c #7D625C",
"=. c #5C5660",
"-. c #5D5963",
";. c #5D5D68",
":. c #625C66",
">. c #655F69",
",. c #695C63",
"<. c #686167",
"1. c #65616C",
"2. c #6C656C",
"3. c #7C6D6E",
"4. c #666671",
"5. c #6B6671",
"6. c #666A73",
"7. c #6A6A75",
"8. c #6D6E78",
"9. c #716E79",
"0. c #706B76",
"q. c #6E707A",
"w. c #737070",
"e. c #73747E",
"r. c #814B3A",
"t. c #815542",
"y. c #8F5D47",
"u. c #815A4A",
"i. c #925942",
"p. c #9C5E45",
"a. c #9E6046",
"s. c #9F6449",
"d. c #88716C",
"f. c #807378",
"g. c #737681",
"h. c #797681",
"j. c #757A85",
"k. c #7C7A85",
"l. c #7B7D88",
"z. c #817E8A",
"x. c #7C828D",
"c. c #7E8692",
"v. c #7F8894",
"b. c #82818D",
"n. c #918A8F",
"m. c #848592",
"M. c #838995",
"N. c #8A8A97",
"B. c #858C98",
"V. c #8B8D9A",
"C. c #87919C",
"Z. c #8D919D",
"A. c #91929E",
"S. c #8B95A1",
"D. c #8E9AA6",
"F. c #8F9BA8",
"G. c #9396A3",
"H. c #9499A6",
"J. c #939DAA",
"K. c #989CA9",
"L. c #999FAC",
"P. c #95A1AE",
"I. c #96A1AE",
"U. c #9AA1AE",
"Y. c #96A4B1",
"T. c #98A6B3",
"R. c #9BA5B2",
"E. c #9CA9B6",
"W. c #9DADBA",
"Q. c #9FB0BD",
"!. c #A2ADBA",
"~. c #A1B0BE",
"^. c #A2B0BE",
"/. c #A6B3C1",
"(. c #A4B4C2",
"). c #A8B6C4",
"_. c #A7B8C6",
"`. c #A8BAC7",
"'. c #AABCCA",
"]. c #ACC0CD",
"[. c #B1C4D3",
/* pixels */
"                                                                                                    ",
"                                                                                                    ",
"                                                                                                    ",
"                                        X X X X X X X X X X X X X X X X                             ",
"                                      > > & $ $ $ $ $ $ $ $ $ $ $ $ $ $ $                           ",
"                                    y R W R T c c c c c c c c c c c c c c q                         ",
"                                  : ( 4.e.e.5.1.>.>.>.>.>.>.>.>.>.1.1.>.=.( 0 @                     ",
"                                @ 0 =.M.Y.I.V.b.z.z.b.b.b.b.b.b.b.b.m.b.0.} q @                     ",
"                              0 y ] 8.D.^.R.V.k.h.h.h.h.h.k.k.h.h.k.k.k.4.( 6 @ X                   ",
"                            0 [ 1.g.B.I.R.V.0.O.} } } }  .o. .} } } o.o.( q > + .                   ",
"                          @ q -.M.Y.E.U.V.0.{ q 6 6 6 6 6 6 6 6 6 6 6 6 6 : $ @ @                   ",
"                        . @ q :.S././.U.m.>.c > > 6 q 0 : $ > 6 q 0 < $ & 6 q y e                   ",
"                        . @ 0 =.B.E.!.K.b.:.y > 0 [ ;.} q > 6 ( -.o.c ; : W =.1.o.y                 ",
"                        X @ 6 | l.H.L.H.m.>.y 6 ( e.C.j.( 6 y 4.B.x.o.0 q =.M.C.7.T $               ",
"                          @ 6 } h.A.K.K.N.1.c 6 } M.W.C.o.6 W j.E.J.1.q y 7.I.T.g.T $ .             ",
"                          @ 6 } e.A.R.R.H.7.c 6 [ B.(.S.o.6 R j.W.P.1.0 q 7.R.E.g.R $ .             ",
"                          @ 6 } e.G.!./.R.g.R 6 [ M.W.C.o.6 R j.E.J.1.q e 7.Y.E.g.T $ .             ",
"                          @ 6 } h.G.!.'.^.c.o.T =.C.Q.S.1.T } x.W.I.8.W ( g.R.T.e.T $ .             ",
"                          @ 6 } h.H.!.'._.J.j.6.l.I._.T.c.7.j.J._.Q.B.7.q.S.(.E.g.T $ .             ",
"                          @ 6 } h.H.!.'.'.(.Y.J.Y.(.'._.E.J.Y.(.].'.W.J.P.(.'.E.q.T $ .             ",
"                        X @ 6 ` 0.V.R.^.'.'.'._.`.'.'._.(.W.W.W.^.(./._._.'.(.D.4.y $ X             ",
"                        . + ; c =.e.C.R.^.).)./././.!.I.S.M.x.j.l.M.L.^.!.I.M.7.[ 0 $ +             ",
"                    + + X + $ 7 ^ =.e.C.U.R.R.U.R.R.H.M.4.} ( W ( =.l.G.G.j.O.T 6 > # @             ",
"                  ; ; ; : : < 7 w ^ =.g.N.A.A.G.G.H.V.e.} q : : 6 R >.l.k.:.R 6 > $ @ @             ",
"                  y R Q ( } ( T 0 w W O.5.k.m.Z.G.G.V.k.:.Q c c R ( O.>.1.-.} W q : # @             ",
"              $ q ` :.0.l.x.g.O.y < 6 q ( :.k.V.H.H.A.m.h.5.2.5.5.>.} ( } 1.g.e.o.q $ X             ",
"            X $ q o.k.G.E.^.J.8.T & + $ 6 { 0.M.Z.V.N.N.N.N.N.N.b.0.` q T 7.H.J.8.c $ X             ",
"            X $ q =.b.R.'.[.W.g.R $ X @ < W ;.e.e.0.0.k.V.K.H.N.e.=.c 6 T e.E.W.j.T $ X             ",
"            X $ q =.b.R.'.[.^.j.R $ @ > 7 i [ o.} ( ( 1.B.T.H.g.} c 7 7 / j.Q.Q.j.T @ X + @         ",
"            X $ q O.z.H.^._.Y.q.c & % 1 w i i i w 6 q o.M.E.D.4.c < < w [ j.Y.Y.e.R $ + @ @ @       ",
"            X $ q ..f.n.A.S.x.=.q % > 7 w w 0 7 7 0 c -.M.R.J.e.} T w u ) 6.c.M.2._ 5 * $ # @       ",
"            X # 8 _ *.d.3.<.o.Y < $ > 2 w 2 3 3 q ( :.g.V.K.K.Z.x.6.X.~ i / o.O.&.@.n a , # @       ",
"            X # 5 m $.$.@.l 6 ; $ & < 0 w 7 > < R :.k.N.Z.G.L.R.T.C.6.) w 7 7 k N G L n 5 $ +       ",
"            @ # , j A A d * @ $ , 5 h x b z s d _ ,.e.m.Z.H.K.I.J.M.w.' x 5 & * a V S j 5 # @       ",
"            @ @ & 5 d a = $ $ 5 j m H F G L J K L #.O.8.B.I.J.c.q.2.*.u.L j * $ = d g f * # @       ",
"            @ @ $ & * * $ # * d S U $.$.t.i.a.p.r.n l o.c.E.D.6.Q M P p.i.C 5 # # * , & $ # @       ",
"              @ @ @ @ @ @ @ , g D $.$.$.$.y.s.a.I a , ] c.W.D.;.7 5 B i.i.C 5 @ o @ @ @ @ @ @       ",
"                      X X @ & s N F #.F F %.$.$.m - ; ] M.(.J.;.6 * j L L j , @ X X                 ",
"                        @ @ & 4 e v v v v Z Z b 8 & : ] c.W.D.:.6 & 5 x x 8 ; @ @                   ",
"                        $ & > 1 w w i r w u i w 7 > < ( g.S.c.=.0 > 1 w w 7 > & $                   ",
"                      & > < 1 7 w w r w w w w w 9 1 7 R o.4.;.( 0 1 2 w w 7 1 < > &                 ",
"                    @ & < 7 w w w w u w w w w w w w w w y y y e w w w w w w w 7 1 > #               ",
"                  @ @ & 1 w w i i r w r w w r w w w w 7 4 4 4 7 w w w w w u w w 1 > # @             ",
"                  @ @ > 1 w u i i r w w w r u w w 7 7 8 s a p 8 7 7 w w w i i w 1 > # @             ",
"                  @ @ & 1 w w i i w w w w r i w 7 1 < 8 n A m d 4 3 2 w i i i w 1 > # @             ",
"                    @ & 1 w w u u w w w w i i w 2 > & f A U L j , > 1 w u i w w 1 > # @             ",
"                    @ & 1 w w u w w w w w u i w 2 > $ p S t.P j * $ 3 w i i i w 1 > #               ",
"                                                                                                    ",
"                                                                                                    ",
"                                                                                                    "
};
