/* XPM */
static char *a623f_11y2p[] = {
/* columns rows colors chars-per-pixel */
"50 50 182 2 ",
"   c None",
".  c #1C070D",
"X  c #1D080F",
"o  c #1E0B12",
"O  c #200D14",
"+  c #200F18",
"@  c #231117",
"#  c #25131A",
"$  c #2A161C",
"%  c #27191E",
"&  c #2B191E",
"*  c #321C1F",
"=  c #391D1C",
"-  c #3F201F",
";  c #271A20",
":  c #2B1C22",
">  c #331F23",
",  c #2C2226",
"<  c #2D262A",
"1  c #2E292C",
"2  c #352225",
"3  c #3B2323",
"4  c #33242B",
"5  c #332A2D",
"6  c #3E2A29",
"7  c #2F2E30",
"8  c #352C31",
"9  c #3A2D35",
"0  c #3D2F38",
"q  c #353535",
"w  c #3A3536",
"e  c #3D323A",
"r  c #373838",
"t  c #383939",
"y  c #422523",
"u  c #452825",
"i  c #432C2A",
"p  c #4C2D29",
"a  c #4A2723",
"s  c #552E27",
"d  c #45322F",
"f  c #4E302B",
"g  c #53322C",
"h  c #5B352C",
"j  c #5C382F",
"k  c #442F31",
"l  c #443533",
"z  c #493534",
"x  c #4D3D37",
"c  c #42363E",
"v  c #473E3A",
"b  c #4A3F3A",
"n  c #493837",
"m  c #503E38",
"M  c #5E3F38",
"N  c #563832",
"B  c #60392E",
"V  c #61352A",
"C  c #603D33",
"Z  c #4D413B",
"A  c #53443D",
"S  c #5B423C",
"D  c #694337",
"F  c #63433A",
"G  c #6D4639",
"H  c #64493E",
"J  c #6D4A3D",
"K  c #674136",
"L  c #714031",
"P  c #7C4735",
"I  c #704739",
"U  c #744C3D",
"Y  c #7A4C3B",
"T  c #7A503F",
"R  c #3D3D42",
"E  c #413740",
"W  c #453A43",
"Q  c #493E47",
"!  c #473F48",
"~  c #4A3F48",
"^  c #414245",
"/  c #4B424B",
"(  c #4A464C",
")  c #50454E",
"_  c #57484E",
"`  c #5A4648",
"'  c #4D4750",
"]  c #4D4A52",
"[  c #514751",
"{  c #534B55",
"}  c #544F59",
"|  c #55525B",
" . c #5B535D",
".. c #535559",
"X. c #644C40",
"o. c #674E48",
"O. c #7C5442",
"+. c #775446",
"@. c #65585E",
"#. c #60565B",
"$. c #5C5660",
"%. c #5D5A64",
"&. c #5A5A65",
"*. c #625B65",
"=. c #625E69",
"-. c #64626C",
";. c #6A646F",
":. c #776B6D",
">. c #666671",
",. c #6B6671",
"<. c #6C6A75",
"1. c #6C6E78",
"2. c #676874",
"3. c #716D78",
"4. c #716C77",
"5. c #6E717B",
"6. c #75727E",
"7. c #844F3C",
"8. c #8B533E",
"9. c #90543D",
"0. c #835844",
"q. c #875843",
"w. c #995D44",
"e. c #945F47",
"r. c #976048",
"t. c #9E6046",
"y. c #A26549",
"u. c #A66246",
"i. c #846A64",
"p. c #87716D",
"a. c #867B7F",
"s. c #747682",
"d. c #787581",
"f. c #757A85",
"g. c #7B7A86",
"h. c #7C7D89",
"j. c #807E8A",
"k. c #7C828D",
"l. c #7F8792",
"z. c #7F8892",
"x. c #83818E",
"c. c #858591",
"v. c #828A95",
"b. c #898A96",
"n. c #858E9A",
"m. c #8B8D9A",
"M. c #938D94",
"N. c #87929E",
"B. c #8B929E",
"V. c #91939F",
"C. c #8C96A2",
"Z. c #8E99A5",
"A. c #8E99A5",
"S. c #9396A3",
"D. c #9499A6",
"F. c #929EAA",
"G. c #959DAA",
"H. c #999EAB",
"J. c #95A0AD",
"K. c #95A1AE",
"L. c #9AA1AE",
"P. c #97A4B1",
"I. c #9BA5B2",
"U. c #9CA9B6",
"Y. c #9DABB8",
"T. c #9EAEBB",
"R. c #9FAFBC",
"E. c #9DACB9",
"W. c #9FB0BD",
"Q. c #A0A7B5",
"!. c #A0A9B7",
"~. c #A2ADBB",
"^. c #A2B1BE",
"/. c #A5B4C2",
"(. c #A7B9C6",
"). c #A8B9C7",
"_. c #AABCCA",
"`. c #A8B5C3",
"'. c #ACC0CE",
"]. c #B0C1CF",
"[. c #AEC1D0",
"{. c #B0C3D2",
/* pixels */
"                          o o o O O O O O O O O O O O O O O O                                       ",
"                        ; : : ; ; ; ; ; ; ; ; ; ; ; ; ; ; ; ;                                       ",
"                        E / / / W W W W W W W W W W W W W W c 9                                     ",
"                    o 8 | 5.f.s.<.,.;.;.;.;.;.;.;.;.;.,.,.;.$.Q 4                                   ",
"                  O ; c >.C.U.J.m.x.x.x.x.x.x.x.x.x.x.c.c.j.,./ 4 @                                 ",
"                  e W  .g.P.~.G.c.d.6.6.6.6.6.d.6.6.6.d.d.6.*.W : O                                 ",
"              $ e  .1.k.C.L.G.x.-.{ ) ) ) [ { { { [ ) [ { { W 4 # o                                 ",
"            X $ c 2.C.Y.Y.G.c.-.W 4 : 4 4 4 4 4 4 4 4 4 4 4 : : % $                                 ",
"            X $ c <.J.`.~.D.h. .9 % : 9 e 8 ; $ : 8 e 9 : $ ; 5 e c e                               ",
"            o $ e -.C.!.Q.S.g. .8 : e $.-.{ 8 ; 9 } -.| e ; 4 ] -.>.} 8                             ",
"            o $ 0 *.c.D.H.S.j. .9 4 | k.C.5.W 4 / s.C.h.] 4 c <.C.n.-.9 @                           ",
"            o $ 9  .h.S.H.D.c.$.9 8 %.Z.T.k./ 4 { v.R.N.| 4 W f.Y.F.>.9 @ .                         ",
"            o $ 9  .h.S.I.I.B.=.9 4 %.Z.^.k./ 4 ] v./.C.| 4 W f.R.J.>.9 @ .                         ",
"            o $ 9  .j.D.~.`.G.2.e 8 %.Z.T.k./ 4 { v.R.N.| 4 W f.Y.F.>.9 @ .                         ",
"            o $ 9  .j.H.`._.Y.f.{ / <.F.W.v.$.W %.N.^.Z.-.W | l.T.F.-.9 @ .                         ",
"            o $ 9 $.x.L.`._.`.C.s.5.v.Y.(.J.k.5.l.U._.Y.v.5.h.J.(.F.-.9 @ .                         ",
"            o $ 9  .x.H.^._._.^.P.J.T.(._.`.U.P.Y.(.'.(.Y.J.U.(._.F.-.9 @ .                         ",
"            o $ 9 { 6.m.P.`._._._.)._._._.`.R.Y.U.Y.T.^.`.(.(.(.T.n.%.9 @                           ",
"            O # 4 c | 1.b.L.^.`.`.`.`.^.U.D.v.h.s.6.f.v.J.^.U.C.k.<.{ 9                             ",
"            # # ; > 9 ) <.m.L.I.L.H.L.L.S.g.%./ E c / %.k.S.m.<.{ E 0                   O O @ # # # ",
"            # # # # % 9 | 6.b.B.V.V.S.S.b.<./ 8 : : 8 / ,.g.4.[ 4 $ @                   : : : % # # ",
"          o O O @ # % 5 W  .,.g.b.V.S.S.b.6. .~ W W / { $.*.{ 9 # . .                 9 W W 9 4 $ @ ",
"        O O O O # : < 5 8 e / -.j.V.D.S.V.c.d.4.<.4.<.=.} W 9 : O o O @ #         o : Q *.-.{ 9 % O ",
"      : : : : : 4 5 q 8 , : 9 } 6.b.m.b.b.b.m.m.m.b.j.;./ 4 % ; : : ; $ #         ; 9 } d.x.;.W ; O ",
"    9 c W / ' { ( W q < : : 5 ( -.6.4.,.<.h.S.H.S.x.,.{ 9 % : e ( / 9 ; @ o     9 c [ <.B.D.6.~ ; o ",
"O ; e } ;.6.h.k.5...9 , : < 8 W ] } ' W / <.C.U.B.,./ 4 % % 9 %.s.5.{ 4 @ X o : W  .4.m.U.U.g./ ; o ",
"O ; c *.j.D.!.~.C.%.9 % : 5 q t t t 8 4 e =.C.Y.n.%.9 % @ ; ! f.K.C.-.9 @ o $ 9 } 6.m.I.^.I.f./ : o ",
"O ; c -.b.!._.'.P.>.9 $ : q q q 5 5 5 9 / 2.C.I.C.1.{ e 4 4 ] v./.P.<.9 $ : 0 { 1.m.L.P.Z.l.>.W : o ",
"O ; c -.b.!.].{.P.>.9 $ : q q 1 , 4 c | ,.h.C.G.F.N.k.-.( w ..v.`.I.2.9 : e  .6.B.U.Y.N.1.| / e     ",
"O ; c =.c.L.`.`.Z.-.9 % , q q < : 4 / ,.x.m.V.S.L.U.P.l.&.^ ..k.U.Z.-.9 4 ) 4.b.P.^.I.f.{ 8 ;       ",
"O ; l @.a.M.S.N.f.{ 4 $ , 8 q < : 4 W =.d.c.B.D.G.G.C.f...^ ] 1.v.h.@.n z _ ;.g.b.N.v.-.c #         ",
"O % k o.i.p.:.=.] w ; $ , 8 q 7 1 1 w Q  .6.B.L.Z.h.-...^ t R ]  .#.o.F F ` _ }  .%. .' 9           ",
"+ % i F +.+.S 9 4 ; % % < q r r q q 4 4 e =.N.U.n.%.e 5 8 r q 8 8 l M U U N i 4 4 4 4 4             ",
"@ % 3 h D C u $ # $ 2 6 d n Z A A m 6 & 4 $.C.W.n.{ : & i m z 2 % * g D K f * @ O O O               ",
"@ # * y p u * # $ y g C F H X.O.0.T h = 4 $.C./.n.{ : = B Y G p $ # 3 p p 3 # O o o                 ",
"# # % & * & # # > g G O.O.O.0.r.y.w.L y 4 $.N.T.v.} 2 a P w.8.B * # % * * & # # @                   ",
"# # # # # @ @ # 2 N J O.O.O.0.e.y.w.L y 4 ] f.N.s.' 4 p P w.8.j * @ + @ # # # #                     ",
"#         o O # > d S H X.H H +.O.U j 2 : w } %.| R 8 l F U G p & @ o o                             ",
"            @ # : 5 l v v v v Z Z v 6 > % : 8 w w q q w v x l 2 % # O                               ",
"            $ % : 5 q r t q q t r q < ; % $ * 2 6 5 q q q q 8 < : $ $                               ",
"          % : , < 5 q q q q q q q q < ; % - s V h i 5 1 q q q 1 < , : %                             ",
"        # ; < 5 q q q q q q q r q q < ; * s P 9.P g 2 , 1 q q q q 5 , % #                           ",
"      # # : < q q r q q q q r t q q < ; * h 9.u.8.h & ; < q t t q 8 , % #                           ",
"      # # : < q t t q q r q r t q q < ; * h 8.t.7.h & ; < q t t r q , % # #                         ",
"      # # : < q t t r q r q r t t q < ; * g Y q.U p & ; < q t t q 8 , % # #                         ",
"      # # : < q t t r q r r r t r q < ; & p I O.G p & ; < q t t q 8 , % #                           ",
"        # : 5 q t t q q q q q t r q < ; & p G O.D u & ; < q t t q 8 , % #                           ",
"                                                                                                    ",
"                                                                                                    ",
"                                                                                                    "
};
