/* XPM */
static char *ahhpd_9fbyc[] = {
/* columns rows colors chars-per-pixel */
"50 50 184 2 ",
"   c None",
".  c #1D080F",
"X  c #1B060D",
"o  c #1E0B13",
"O  c #1F0F18",
"+  c #200D14",
"@  c #220F18",
"#  c #231017",
"$  c #25131A",
"%  c #29161B",
"&  c #27191F",
"*  c #2B191E",
"=  c #321B1E",
"-  c #391E1E",
";  c #3F221F",
":  c #271C22",
">  c #2B1B22",
",  c #2D1F28",
"<  c #341E21",
"1  c #2C2226",
"2  c #2E2429",
"3  c #2E292D",
"4  c #332125",
"5  c #3C2324",
"6  c #33242C",
"7  c #322B2E",
"8  c #3B2A2B",
"9  c #3B2826",
"0  c #2F2F32",
"q  c #362B31",
"w  c #3A2C34",
"e  c #353435",
"r  c #3A3535",
"t  c #373837",
"y  c #383837",
"u  c #363738",
"i  c #3D323A",
"p  c #373838",
"a  c #383939",
"s  c #412625",
"d  c #442826",
"f  c #4A2A26",
"g  c #422E2C",
"h  c #4B2D29",
"j  c #512C26",
"k  c #40302E",
"l  c #4E302C",
"z  c #54332C",
"x  c #5C362D",
"c  c #402E32",
"v  c #433232",
"b  c #4B3A35",
"n  c #41353E",
"m  c #463E3A",
"M  c #4C3F39",
"N  c #463835",
"B  c #5B3B34",
"V  c #563E37",
"C  c #60362C",
"Z  c #693C2F",
"A  c #633E33",
"S  c #6B3F33",
"D  c #4D413B",
"F  c #52433C",
"G  c #5C4036",
"H  c #664135",
"J  c #6A4235",
"K  c #694539",
"L  c #644A3E",
"P  c #6C4A3E",
"I  c #634338",
"U  c #7C4836",
"Y  c #724B3C",
"T  c #7D4E3D",
"R  c #734335",
"E  c #7A503F",
"W  c #3F3741",
"Q  c #413740",
"!  c #443A43",
"~  c #493E47",
"^  c #473F48",
"/  c #4A3F48",
"(  c #513F41",
")  c #444549",
"_  c #4B434B",
"`  c #45484C",
"'  c #4A4B4E",
"]  c #50454F",
"[  c #5F4745",
"{  c #4D4750",
"}  c #4E4951",
"|  c #514750",
" . c #534A54",
".. c #554E58",
"X. c #584F59",
"o. c #5D4E53",
"O. c #56525B",
"+. c #5A535D",
"@. c #525256",
"#. c #634741",
"$. c #654C40",
"%. c #735142",
"&. c #7C5443",
"*. c #7B564A",
"=. c #645151",
"-. c #7F655F",
";. c #5C5660",
":. c #5D5B64",
">. c #5D5D68",
",. c #575862",
"<. c #625B66",
"1. c #645E68",
"2. c #5B6166",
"3. c #686167",
"4. c #63626C",
"5. c #6A646E",
"6. c #7C6D6E",
"7. c #6B6570",
"8. c #6B6A74",
"9. c #6C6F79",
"0. c #706C77",
"q. c #716E79",
"w. c #6E717B",
"e. c #74737E",
"r. c #78747F",
"t. c #844D39",
"y. c #8F543E",
"u. c #8D5A44",
"i. c #815744",
"p. c #945A42",
"a. c #9D5F45",
"s. c #9E6247",
"d. c #A36146",
"f. c #A26549",
"g. c #88716C",
"h. c #807378",
"j. c #747681",
"k. c #797581",
"l. c #757984",
"z. c #7B7985",
"x. c #7A7D89",
"c. c #807D88",
"v. c #7B828D",
"b. c #7E8591",
"n. c #7F8895",
"m. c #83828E",
"M. c #918A8F",
"N. c #858592",
"B. c #838995",
"V. c #8A8A97",
"C. c #858D99",
"Z. c #8D8E9A",
"A. c #888794",
"S. c #86919C",
"D. c #8B929E",
"F. c #91929E",
"G. c #8C95A1",
"H. c #8E99A6",
"J. c #9496A3",
"K. c #9499A6",
"L. c #949DAA",
"P. c #999DAB",
"I. c #94A1AD",
"U. c #9AA0AE",
"Y. c #9AA1AE",
"T. c #96A3B0",
"R. c #96A4B0",
"E. c #99A5B2",
"W. c #9BA5B2",
"Q. c #9AA8B5",
"!. c #9CA9B6",
"~. c #9CABB8",
"^. c #9FAFBC",
"/. c #9EADBA",
"(. c #9FB0BD",
"). c #A2ADBB",
"_. c #A1A9B7",
"`. c #A2B0BE",
"'. c #A4B4C2",
"]. c #A6B8C6",
"[. c #A8B9C7",
"{. c #A7BAC8",
"}. c #AABCCA",
"|. c #B1C4D3",
/* pixels */
"                                      o o o o + + + + + + + + + + + + + +                           ",
"                                      > > > > > > > > > > > > > > > > > > >                         ",
"                                    i _ _ _ ~ ! ! ! ! ! ! ! ! ! ! ! ! ! n i                         ",
"                                  , { 8.l.l.q.7.5.5.5.5.5.5.5.5.5.7.7.5.<._ q #                     ",
"                                $ w :.C.Q.E.D.N.m.m.m.m.m.m.m.m.m.m.N.m.q. .q #                     ",
"                              w !  .w.K.).E.V.z.r.r.r.r.r.k.r.r.r.r.k.e.4._ 6 # o                   ",
"                            q  .8.x.D.U.Y.B.8.X.] _ ] |  . . .| ] |  . ./ w * + .                   ",
"                          # w :.C.Q./.Y.Z.8._ q , 6 6 6 6 6 6 6 6 6 6 6 6 > * $ $                   ",
"                        . # w <.G.'.'.Y.N.1.n > > 7 i w , $ > 6 i w 6 $ & 6 i n i                   ",
"                        . # q ;.B.!._.P.N.<.i > w  .4.O.i > 6 { 4.:.! , 2 ^ 1.8.;.i                 ",
"                        o # 6 X.z.J.P.K.N.1.i 6 _ j.G.x.{ 6 n 8.D.B.+.q w :.C.G.9.! $               ",
"                          # 6  .k.D.P.P.Z.5.n 6  .B.^.D.O.6 ! l./.L.4.w i 8.T.Q.j.! $ .             ",
"                          # 6  .r.F.W._.K.8.n 2 { C.'.D.O.6 ! x.^.I.4.q w 8.E./.j.! $ .             ",
"                          # 6  .r.J._.'.Q.j.! 6  .B.^.S.O.6 ! l.~.L.4.w i 8.T.Q.j.! $ .             ",
"                          # 6  .k.J.).}.'.B.+.! :.D.`.H.4.^ O.b.^.T.w._ { j.Q.Q.e.! $ .             ",
"                          # 6  .k.K.`.}.{.I.x.9.v.R.].Q.B.e.x.U.{.'.S.w.j.H.].~.e.! $ .             ",
"                          # 6  .k.J.).}.}.'.Q.U.Q.'.}.].~.T.Q.'.}.}.^.U.R.'.}.Q.w.! $ .             ",
"                          # 6 _ 8.A.P.).}.}.}.[.}.}.}.].`./.Q.Q.~.).'.].].].`.H.8.n $ .             ",
"                          # , i  .7.m.P.).'.'.'.'.`./.L.C.v.j.e.j.v.L.).).L.b.w.+.i                 ",
"                          # * , w ~ 4.N.P.W.Y.Y.Y.Y.K.m.4.{ ! i ! +.j.G.D.e.O.! i                   ",
"                        # # # # $ 6 | 0.N.Z.F.F.J.J.Z.r...w , , 6 ! 1.z.r.+.w & #                   ",
"                        + + # # & 2 n ..5.k.N.F.J.J.Z.z.<._ ! ! ~ | +.<.+.n > o X                   ",
"                    + + + + # & 2 7 q i ~ <.z.Z.J.J.F.A.z.0.8.0.0.5.+.~ w , # o + # #               ",
"                  > > , , , 2 7 q e 2 > 6 _ 8.N.Z.Z.V.V.Z.Z.Z.Z.m.0. .q > & , , > $ # #             ",
"                  i ! ~ _  .{ ! r 7 1 : 2 ! :.9.e.8.8.z.D.P.K.N.q.+.n > > w _ _ i , % #             ",
"              $ w ] 1.q.z.v.l.:.i 1 : 1 7 a ' @.{ ~ _ 1.B.Q.K.e. .w > $ 6  .e.j.+.w $ o             ",
"            o $ w +.z.J.!.`.L.9.! > : 7 e a a a q 6 w O.B.!.H.7.n > # $ i 8.H.L.9.n $ o             ",
"            o $ w ;.m.W.}.|.^.j.! & & 7 e e 7 7 7 w ! <.B.E.L.l.O.! 6 2 ! j.~.~.l.! $ o             ",
"            o $ w ;.m.W.}.|.`.l.! & & 7 e 7 1 1 i  .4.z.Z.P.P.G.b.9.} a ' x.(.(.l.! # o + #         ",
"            o $ w +.c.K.`.].T.w.n & : 7 e 3 : , ! 1.x.V.F.J.P.!.Q.S.4.) ' j.R.R.e.! * + # # #       ",
"            o $ w o.h.M.F.D.v.:.w & : 7 e 3 1 1 n +.r.m.D.K.P.L.H.v.2.) ` 4.v.B.5.( 9 = % % #       ",
"            o % 8 [ -.g.6.3.O.Q 2 $ : 3 e e 3 3 w ! ..8.C.U.L.b.8.+.) a a ` +.+.=.#.B f < % #       ",
"            o % 5 B *.*.#.v 6 > * & 1 q e y e e 7 2 q O.B.Q.H.8.! 7 7 e r q q c V P Y x 5 % @       ",
"            # % < z H H h = # % < 9 g N M F F F k * > { b.^.H.>.6 & 9 b b 8 * * f A K z 5 % #       ",
"            # # * 5 h f - % % 5 z B I L P %.i.&.A ; > { n.'.L.>.6 = z Y Y z = % - h l d < % #       ",
"            # # % * = = % # = h J T &.&.i.p.f.d.U f 4 { b.~.H.>.7 s S p.p.S 5 % % = < * * # #       ",
"              # # # # # # # < l K &.&.&.&.u.s.s.U f < ! 9.S.v.O.q d J p.p.S 5 # O # # # # # #       ",
"                      o o # * g V L $.L L %.&.&.A d > q { >.,.) q k G Y Y z < # o o                 ",
"                        # # & 6 r m m m m D D M k 4 * > 6 w i e e r N M b 8 > # #                   ",
"                        $ & : 2 e e p t e p a e 7 : $ % = 5 5 8 e e e e e 6 : & $                   ",
"                      & : 1 2 7 e e u e e e u e 3 : * - j C x h 8 3 0 e e 7 2 1 : &                 ",
"                    # & 1 7 e e e e e e e p p e 3 : * f R y.t.x 4 1 3 e e e e 7 2 > %               ",
"                  # # & 2 e e a a t t t e p p e 3 : * j t.d.p.Z < & 1 e e a t e 2 > % #             ",
"                  # # > 2 e a a a t e e e p p e 3 : * h T a.y.C - & 1 e t a a e 2 > % #             ",
"                  # # & 2 e e a a e e e e a a e 3 : & f R u.T z = & 1 e p a p e 2 > % #             ",
"                    # & 2 e e a p e e e e a a e 3 : & d J &.Y z < & 1 e t a t e 2 > % #             ",
"                    # & 2 e e a e e e e e a a e 3 : & d H E Y l < : 1 e e a e e 2 > %               ",
"                                                                                                    ",
"                                                                                                    ",
"                                                                                                    "
};
