/* XPM */
static char *xpm_________________________________resized[] = {
/* columns rows colors chars-per-pixel */
"50 50 202 2 ",
"   c #241117",
".  c #25131A",
"X  c #29161C",
"o  c #2A1621",
"O  c #2C1924",
"+  c #2A1E29",
"@  c #311D22",
"#  c #331E2E",
"$  c #331F30",
"%  c #052732",
"&  c #052934",
"*  c #052E39",
"=  c #05323E",
"-  c #2A202B",
";  c #36202C",
":  c #3B242C",
">  c #3E282C",
",  c #2F2E3E",
"<  c #322333",
"1  c #3A2336",
"2  c #312837",
"3  c #3C253A",
"4  c #302B3A",
"5  c #3B293E",
"6  c #3F2837",
"7  c #2E303F",
"8  c #412A2B",
"9  c #432B35",
"0  c #432C3C",
"q  c #40273B",
"w  c #4C3234",
"e  c #4B343A",
"r  c #4D393C",
"t  c #47303B",
"y  c #553B35",
"u  c #593E32",
"i  c #523A36",
"p  c #58463A",
"a  c #4F423F",
"s  c #77592D",
"d  c #664C32",
"f  c #664A32",
"g  c #685838",
"h  c #715932",
"j  c #6E6039",
"k  c #7A6733",
"l  c #053540",
"z  c #053843",
"x  c #053E49",
"c  c #3B2D42",
"v  c #373145",
"b  c #3C3246",
"n  c #363449",
"m  c #39364B",
"M  c #343A4D",
"N  c #3C3B4C",
"B  c #353D51",
"V  c #393C50",
"C  c #423442",
"Z  c #453A43",
"A  c #413E48",
"S  c #412F40",
"D  c #05404B",
"F  c #054551",
"G  c #054A55",
"H  c #054D59",
"J  c #05525D",
"K  c #324256",
"L  c #34455A",
"P  c #384C5A",
"I  c #394957",
"U  c #37505F",
"Y  c #055B67",
"T  c #055D69",
"R  c #324D61",
"E  c #2F556A",
"W  c #2D5A6E",
"Q  c #2F5367",
"!  c #315365",
"~  c #365A65",
"^  c #305569",
"/  c #2D5D71",
"(  c #05626D",
")  c #056975",
"_  c #06727E",
"`  c #386169",
"'  c #2C6273",
"]  c #2D6977",
"[  c #2B6679",
"{  c #2A6B7C",
"}  c #27697C",
"|  c #3A7A78",
" . c #3A7675",
".. c #42464E",
"X. c #4A4847",
"o. c #5C5E47",
"O. c #575445",
"+. c #475C58",
"@. c #465554",
"#. c #45615E",
"$. c #5C7959",
"%. c #69754B",
"&. c #717A48",
"*. c #646746",
"=. c #4F7562",
"-. c #527661",
";. c #876B2B",
":. c #957626",
">. c #8C7D33",
",. c #8F7529",
"<. c #7B9350",
"1. c #6D955E",
"2. c #78A55F",
"3. c #568E6D",
"4. c #538D70",
"5. c #4A9079",
"6. c #659E6B",
"7. c #56A77D",
"8. c #73A261",
"9. c #7AB96A",
"0. c #898139",
"q. c #9E9634",
"w. c #A88A23",
"e. c #A49931",
"r. c #A3A83C",
"t. c #B28E1D",
"y. c #80944D",
"u. c #898E41",
"i. c #9BA642",
"p. c #8EB255",
"a. c #057581",
"s. c #057985",
"d. c #057C88",
"f. c #286D80",
"g. c #267385",
"h. c #257688",
"j. c #247A8C",
"k. c #297885",
"l. c #227F91",
"z. c #06828D",
"x. c #09848D",
"c. c #068A96",
"v. c #068D99",
"b. c #068691",
"n. c #1D8D9D",
"m. c #05929D",
"M. c #0C969D",
"N. c #2B848C",
"B. c #37918A",
"V. c #218293",
"C. c #208798",
"Z. c #248D97",
"A. c #20919E",
"S. c #269B9F",
"D. c #309F99",
"F. c #2FA29C",
"G. c #3AAD9A",
"H. c #31A39A",
"J. c #3BBD9F",
"K. c #0595A1",
"L. c #0599A5",
"P. c #069EAA",
"I. c #099BA4",
"U. c #1B94A4",
"Y. c #189DAC",
"T. c #1D9AA7",
"R. c #269CA0",
"E. c #06A2AE",
"W. c #0EA1A7",
"Q. c #15ABAC",
"!. c #1CA6AF",
"~. c #06A5B1",
"^. c #07ABB6",
"/. c #09ABB5",
"(. c #06AEB9",
"). c #0AADB8",
"_. c #15A5B4",
"`. c #14A8B7",
"'. c #12ACBB",
"]. c #1AA8B2",
"[. c #06B2BE",
"{. c #0AB4BF",
"}. c #13B2BE",
"|. c #19B8B9",
" X c #1DB4AF",
".X c #24AAAA",
"XX c #24B3AD",
"oX c #2DBBAA",
"OX c #34B7A3",
"+X c #24B7B0",
"@X c #4B9F82",
"#X c #49A486",
"$X c #56BB89",
"%X c #4DBC92",
"&X c #52AF87",
"*X c #07B5C1",
"=X c #0DB5C2",
"-X c #07B8C4",
";X c #0BB9C5",
":X c #0ABBC8",
">X c #11B2C0",
",X c #13BBC2",
/* pixels */
". . . . . .   .   .                 .         . . . . .   . . .       .     .     .             . . ",
". . . X . . . . . . . o   o o   . . o . . . . . + . . . . . . . o . . . o . . X . X . X X   X . . . ",
". . . o o O O O O O O O O O O O + + O + + + + + - - - - + + - - + O O O o O O O @ ; @ @ @ o X X .   ",
". . X O # # # # # # # # # # # # $ $ $ 2 4 , v v v 7 7 7 , , , - $ $ $ $ $ $ # : > 8 8 8 8 # @ X . . ",
"  . O # $ 3 $ q 3 3 $ 3 S $ c c c v b m B B B K K K K K B M M n c c c c 5 3 9 9 w p u u 8 8 # @ . . ",
". . O # q q 3 S q 3 q S S S b C B B R R ! E W / / / / W E Q R K K B n b c 0 t i f s s f u w # @ X   ",
"  . O # 3 q 3 3 q 3 S S S A A @.R ^ / ] f.g.g.h.l.l.h.h.g.} } / ^ R K N N Z r f s :.:.;.f w 8 @ X   ",
". . O # 3 q q 3 q S S C X.X.@.#.` f.k.l.C.n.U.U.U.U.U.U.n.n.l.h.} ' E L K A a g :.t.t.:.s u 8 @ .   ",
"  . O # 3 3 3 3 c S A Z o.*.%.-.| N.Z.T.Y._.`.`./._._._._.Y.U.n.V.h.} / ! I X.g ;.w.t.:.s u 8 @ X   ",
"  o O # 3 3 3 5 c S A O.k >.u.1.5.D..X`.'.=X=X-X=X=X=X=X=X>X'._.Y.U.V.g.' ~ P O.g ;.;.s f w # @ . . ",
"  . O # 3 3 5 c A A +.*.u.e.p.p.&XOX|.,X:X:X-X-X-X-X:X-X:X:X:X=X>X_.Y.n.j.] ~ @.O.g f f w 9 # @ .   ",
"  . O # 3 3 c v A @.#.$.y.r.p.9.%XoX|.;X-X-X*X(.(.(.(.*X*X-X:X:X;X=X`.Y.A.k.] ~ @.X.X.r 9 q # O . . ",
"  o O # 3 5 c m L ^ #.@X3.p.p.$XOX+X|./.~.P.L.K.K.K.K.L.P.~.(.*X-X;X=X'.Y.n.j.[ ^ I A Z c 3 $ O . . ",
"  . O # 3 c m B P f.h.#X#X%X%XJ.oXQ.E.M.v.z.d.s.a.a.s.d.z.v.K.E.(.=X;X=X'.!.n.j.[ ! I b c 3 $ O . . ",
"    O # 3 v B L ^ f.Z.F.].oXoX+XQ.W.M.z._ ) ( T Y Y T ( ) a.d.K.P.(.*X;X;X'.Y.n.g.W L V v 3 $ O .   ",
"  o O # 5 n L Q f.l.T.].|.+X].!.M.c._ ) Y Y H G F F G H H Y ) s.c.L.^.*X-X=X`.U.l.} Q K n c $ O o   ",
"  . + $ v B R / h.A._.}.{.|.Q.M.x.) ( J F D = = = = = z D F J ( a.d.L.^.*X=X>X_.n.j./ R B v $ O .   ",
"  . + $ v B E } V.Y.>X:X=X^.P.c._ ( H D = * * * & & % & * = D J T a.v.P.^.-X;X>XY.l.f.E B v < + . . ",
"  o + < n L / h.n._.,X:X[.E.m.s.( H D = * & % % % % % % & * = D J ( s.m.E.*X=X>X_.n.h./ L n - + o   ",
"  o + 2 n R [ l.T.'.:X:X^.K.d.) J D = * & % % % % % % % % & = = x J ) d.L.^.:X:X>XU.l.f.R M 2 + o   ",
"  . + , M Q f.n.Y.>X:X-XE.c._ T F = * * % % % % % % & % % % * * l G T a.v.~.-X:X>XY.C.f.Q B 4 + o   ",
"  o + , B E g.n._.>X:X*XE.z.) J D * % % % % % % % % % % % % % % * x J ) z.E.*X:X>XY.n.g.E B 4 - o   ",
". . + , K W h.U._.>X:X(.L.z.( J = * % % % % % % % & % % % % % % * l H ( d.L.*X-X>X_.n.h.E B v - .   ",
". o + , B / h.U._.=X:X(.m._ ( F = * % % % % % % % % % % % % % % & l F T s.K.(.:X=X>XU.h./ B v - o   ",
"  . - 7 K ' j.K._.=X;X(.m.a.T D = % % % % % % & % % % % % & % % % l F Y a.m.(.-X=X`.U.j./ K , - . . ",
"  + - 7 K ' j.U.`.=X;X(.m.a.T F = % % % % % % % % % % & % % % % & l F Y a.m.(.-X=X`.U.l./ K 7 - . . ",
"  . - 7 K / j.U.`.=X-X(.K.s.T F = * % % & % % % & % % % % % % % & l F ( s.L.(.=X=X`.U.j./ K v - +   ",
"  . - v B E h.U._.=X-X[.L.d.( H = * % % % % % % % % % % % % % % & z H ( d.L.=X:X=X_.n.a./ K , + .   ",
"  o + 2 B E g.U._.=X;X*XE.z.) J D = & % % % % % % % % % % % % % * x J ) b.P.*X:X,X_.n.g.E B , + .   ",
"  . + , B Q } n.Y.=X:X-XE.c._ Y F = * * % % % % % % % % % % & * l F Y a.v.E.-X:X>XY.C.f.Q M 4 + .   ",
"  . O 2 M R [ l.U.'.:X-X/.M.z.) J D = * & % % % % % % % % * * = x J ) d.K.^.:X;X'.U.l.[ R M 4 + . . ",
"  . + < n L / g.n.`.;X-X[.E.M._ ( J D = * % % % % % % % & * = D H ( s.m.E.*X:X-X`.n.g./ L n < + . . ",
"  . + < v B E } V.Y.}.=X-X).P.c._ T H x l * & & & & & * l l x H Y a.c.P.(.=X;X}.Y.n.} E K v < O . . ",
"  o o < c B R [ h.A.].}.=X{.^.K.z._ ( J F x z l = = l l x x J ( a.d.L./.=X,X}.].A.g.' P V c $ O .   ",
"  o O < c m L ^ ] N.R.!.|.;X{.^.L.v.s.) Y J G F F F F H J Y ) s.c.K./.>X,X}..XS.N.] ! I m c $ O o   ",
"  . o $ 5 b N P ` | B.D.XX|.;X=X(.P.v.d.a.) ( T Y Y T ( ) a.d.v.P.^.=X=X|.XXH.B. .` P K c 3 $ O .   ",
"  . O $ 3 c Z ..+.=.4.@XG.+X,X;X=X(.~.K.v.z.d.a.a.a.s.s.z.v.K.E.(.=X=X|.+XG.@X3.-.+...N c 3 $ O . . ",
". . O $ 3 S Z O.o.%.<.8.7.G.XX|.,X-X*X^.~.P.K.K.m.m.K.L.P.~.^.*X;X>X|.XX%X7.8.y.&.o.X.C S 3 # O .   ",
". . O $ 3 t r p j >.q.i.8.#XF.!.'.;X:X:X-X*X(.(.(.(.(.[.*X-X-X:X:X}..XH.@X2.i.e.>.g p r 0 3 # O . . ",
"  . o $ 3 0 r p h ,.w.q.<.4.B.R.].>X=X;X:X-X:X:X;X-X-X:X:X:X:X;X}.].R.B.4.y.e.w.:.h p e q 3 $ o . . ",
"  o O # q 0 e u d ;.,.>.%.=.| N.U.Y.`.'.>X=X=X=X=X-X=X>X=X>X'._.Y.A.C.=.-.&.>.:.;.f i t 0 3 # o . . ",
"  X O # 1 q t e y d h j o.+.` { h.l.n.U.Y.Y.`._.`.`._._._.Y.Y.n.l.k.f.~ +.o.j h d i e 0 q 3 # O .   ",
"  . O # 3 q 0 9 e y p p X...P Q / f.h.l.C.n.U.T.U.U.U.U.n.n.l.h.f.' ^ R ..X.f y i e 0 0 q q # O . . ",
". . O # $ q q q 0 e i r Z N N L R E / [ f.g.h.h.j.j.j.h.f.} } / ^ R L A Z Z Z e t 0 0 0 S $ # O . . ",
"  . O # 1 3 q q q 0 0 t t b b n M B R R Q W W ' / / / W E Q R K V B m b S S S 0 q q q q q 3 # O . . ",
". . O $ 1 3 3 3 6 1 6 1 3 3 5 5 v n n n M B B B L K K B M M M n b c c c 3 3 3 1 q 1 3 1 $ q # O .   ",
"  . o O # # # # # # # # # # # ; - < 4 - 4 4 , , 7 7 v v , , , 2 $ $ # # # # # # # # # # # # O o .   ",
".   o o O o O O o O O O o O O O o o + + + - - - - - - - + + O - + O O O O o O o O O O O O O o . . . ",
".   . . . . o . X . . . . o . o . . o . o o o . . . + . . . . . . . . . . . . . . . . . . o . . . . ",
". . .   .         . .             .           . .       . . . .   .   . . . . . .   .   .     . . . "
};
