/* XPM */
static char *xpm______________________________________resized[] = {
/* columns rows colors chars-per-pixel */
"50 50 51 1 ",
"  c #1C1C1C",
". c #25131A",
"X c #28161D",
"o c #291620",
"O c #2D1924",
"+ c #301D27",
"@ c #341E2E",
"# c #232323",
"$ c #2C2C2C",
"% c #35202F",
"& c #362131",
"* c #392534",
"= c #3B2836",
"- c #3D253B",
"; c #3F283C",
": c #343434",
"> c #3D3D3D",
", c #40293E",
"< c #432D41",
"1 c #463144",
"2 c #483446",
"3 c #4A3649",
"4 c #4D3A4C",
"5 c #513E4F",
"6 c #513F50",
"7 c #434343",
"8 c #4B4B4B",
"9 c #544353",
"0 c #504F50",
"q c #584957",
"w c #5B4C5A",
"e c #545454",
"r c #5F525E",
"t c #5C5C5C",
"y c #60525F",
"u c #625561",
"i c #655B64",
"p c #685D67",
"a c #695E68",
"s c #636363",
"d c #686667",
"f c #6C646C",
"g c #6D6C6D",
"h c #70676F",
"j c #70696F",
"k c #726C72",
"l c #757375",
"z c #787577",
"x c #777678",
"c c #787578",
"v c #797879",
/* pixels */
"..................................................",
"..XX....o.....o.....X.....X.....XX.....X....o.....",
"..XooOoOOOooooOOoOoOO+O@+++++O+OOOooooOOOooOoOoo..",
"..XO@@@@@@@@@@@@@@@-**--=====**&&@@@@@@@@@@@@@Oo..",
"..o@&----------<<<<<11332322,,,,,,,,----------@o..",
"..O@----------<<1<3466669999994931<<,,--------@O..",
"..o@-<---,-<<<13466wwyyuyyyyywqq6531<<--------@o..",
"..o@-------<<3366wuiiaaafhaadiyyw6641<<,------@o..",
"..o@-----,<<346wriaahjjjkjjjjjhiiyq6531<,----*@O..",
"..o@----,<136qyuahkllzzllzllzlkjhaurq631<<,-,-@O..",
".oO@---,<<466uihklzczcvxlllxcccclkhiyq631<,---@O..",
".oo@--,<136qyphkzczzlkgkjjjjklccclkfpyq531<,-&@o..",
"..o@-,<<36wyahkczlkjdssttttsddjklxllhayq431<,&@O..",
"..O@-,<14qyahkcckjdste8888800rtdgklzkhpyq41<,,@o..",
"..o@-<136yphccckgst087>>>>>778etdgkcckhpy633,,@O..",
"..o@-<35wufhcckhst87>:::$$$::>78tyhklchfuw43,,&O..",
"..O%,15qyskxxxgse7>:$$######$$:>80tggxlgdy95,,*O..",
"..O&,15qiglxlgse8>:$###     ##$:>8tsgllljyq92,&O..",
"..O&,3qrajxxgdt8>:$#         ##$:>8tsxxxgay94,*O..",
"..+*,5quhkxxgte7:$##          ##$:7etgxxljyq8,&O..",
"..+&,5wihlzlde8>$##            ##$>0tdlvlfay5,*O..",
"..+=25ypjkzkse7:$#              #$:7eslvljyy9,=O..",
"..+=29yfjlzjs0>:#                #:>0tgvlkfy94,+..",
"..+=29yfklxgt0,$#               ##$>0tgxzkay9,=+..",
"..+,,9yfkllgt8>$                 #$>8tgxzkfyq,,+o.",
".X#=49yfklljt8>$#                #$>8tglzkfyq,,O..",
".X+=29yfkllgt8>$#                #$>8tglzkfy9,,o..",
"..O=29yfjlzgs8>:#               ##:7esllzjaiw,,O..",
"..X,,9wajlzlse7:$#              #$:7epkcljar91-+..",
"..O%29yyhlclde8>$##             #$>8talclfiw61&+..",
"..O,,5wyfkxxgt07:$##           #$:7eygcckfuq4,&O..",
"..o,,3qysjlxgdt8>:$#          #$:>8tslccjay94,&O..",
"..o&,36wihlckjyt8>$$# #     ##$:>7edjlzlhuw6,,,X..",
"..o%,159yajllldse8>>$$#$####$$:>8esgklzjay954,%o..",
".X+%,,369ifjlllgtt07>>$$$$$::>78esglzzkjiq64,,%o..",
".Xo%,,146yahlzxkgste8>>>>>>>780tsggxzkjay6,4,,%O..",
"..O@,,,35qyajlzlggdtte0088000ttdgllzzjayq53,,*@o..",
"..O@,,,,,5wyajllxllgdsttttttssgglvzkjpyw54,,,,@o..",
"..X@&,,,,55qyffllxxxxgggggggllxvvxgjpyq93,,,--@O..",
"..o@&,,,,246wyyfglxvvvxlxxxxvvvxlggsyq9,3,,,-*@O..",
"..o@--,-,,1469yydjjlllllllxllllkhauwq631,,,---@O..",
"..O@----,,,,259wyypdjgkkgkkggffauyw9431,,,----@O..",
"..O@----,,,,12460wyyydddgddsayyyw9631<,,,-----@O..",
"..O@----,,,,,,1249qwwyyyyyyyyyq96433<,,-,-,---@O..",
"..O@--------,,,,,,899e9e09996545311,----------@O..",
"..o@&------*,-,,,,,,,,,,243,11,,,------------@@o..",
"..oO@@@@@@@@@@@@&&&&,,====,=-&*&&@&@@@@@@@@@@@Oo..",
"..oooOOoOoOoOOOOOX+++X++O++O+OOoOOOOOoOOooOOOooo..",
".......................o..o.....o.................",
".................................................."
};
