/* XPM */
static char *xpm___________________________resized[] = {
/* columns rows colors chars-per-pixel */
"50 50 47 1 ",
"  c #221117",
". c #25131A",
"X c #29161E",
"o c #2C181F",
"O c #2A1720",
"+ c #2D1922",
"@ c #2F1A28",
"# c #301D25",
"$ c #321D2B",
"% c #351F31",
"& c #36222D",
"* c #39232B",
"= c #362031",
"- c #3A2434",
"; c #3E2833",
": c #3D263B",
"> c #3F283B",
", c #412A36",
"< c #492F37",
"1 c #40273C",
"2 c #432B3C",
"3 c #492F3B",
"4 c #47303B",
"5 c #4B313E",
"6 c #53363F",
"7 c #452B43",
"8 c #4A2E44",
"9 c #4B2E49",
"0 c #4E3540",
"q c #4E3049",
"w c #533740",
"e c #543841",
"r c #5A3C43",
"t c #553649",
"y c #5A3A4B",
"u c #543452",
"i c #583656",
"p c #5D3A53",
"a c #613F48",
"s c #634247",
"d c #6E4A47",
"f c #654349",
"g c #684548",
"h c #6E4A48",
"j c #724D4B",
"k c #76504E",
"l c #78514E",
/* pixels */
"999999998999999uuuu99899quiiiiiiiiiiiiiiu9998999q9",
"9q98qqq99t99t9quiiut9t9qtiipiiippppiiiiiuuq9qqq9q9",
"9qqttttttttttttypppttttttppppppppppppippyytttttq9q",
"9qtyyassaaaaaaaffffaaaaaafffjffhffgagjjpaaaaaattq8",
"8qtygdhgghghghhgjgggdghghhhhgfhhhggjghjghhgdggatq9",
"9qyaddjdjhddddddhjdddjddhhhhjjhjdddddhhdhhjdddatq9",
"99tshdddddddddjddhhdddddhhhhhhhhhdddddhdjjdddgayq9",
"9qtshdddhddhdjhhhjddddjdhhhhhhjhhhjdddhhjgddddatq9",
"9qtfhjjjjjjjjjjjjjjjjjjjjjhhjhhjjdjdjjjjhhjjjhatq9",
"9qyfjkjjjjjjjjjljljjjjjjkjkkkkjkkjjkkjkjkkkkljfyq9",
"9qtfjllllllljlllljjllllllkkkkklklkllljllkkkklkgtq9",
"89tfjjjjjjjjjjjjjjjjjjjjjjjjjjjjjjjjjjjjjjjjjhat97",
"77qrsggsffgfgsggggfggggsgsgfagggggghgggaaagggarq77",
"1:2wrrrrrrrrrrrrrrrrrrrrrrrryrrrra6r6a6aarrrae5311",
"::7866wwwwww6we6wwwwwww666wwwwww666666wwwweew6821%",
":::36666wwww6666wwww66666666wwww666666666www66w377",
":123wwwwwwwwwwwwwww66ww6ww66666r66ww6w666666ww8897",
":125wwwwwwwwwwwwwwwww6ww6r6r666666wwww666r66www997",
"::7386wwwrrwrwww6ewer6ww6r666666a6wwwa666a66w88877",
"::1226wwwwwwwwwwr6eewwww6666r66rwwwwww666w66w3377>",
":::1733w6w6w666w6666666666ww6666wwww66ww66ww8211::",
"$%%:33833333373333383358338355353623582w5333227:::",
"O@@%1111177313132222221222222211121311211212111:::",
".O@%:111111:11111111111111111111111111111111111:::",
"O@$-:227773731713737371722377222222222222>7>>>>>::",
"%%-1123533333336333333333833333653863355000077>>::",
":::125ww6wwwwwwwwwwwwwwww666wwww66w6wwww000004>>::",
"::1288wwwrwwwwwwwwwwwwrwr66wwwww6rwwewwwe000044;%%",
":1286wwwrwwwwwwrwwwwrwwwwwrwwrwwrwwweeeeeeee004&@@",
"%1236wwwwwwwwwwwwwwwwwwwwwwwwwwwewwweereeeee00;#O.",
"%%,<8wwwwwwwrwwwwwwrwwwwwwwwwwwweweeeeeeeeee00>%OO",
"@%%,5wwwwwrwrwwrwrwwwrwrwrwrwrwrewrereeeeeee04>%%%",
"XO@,40ww6w666666000eeeeeeeeeeeeeeeeeeeeeeee044;>:%",
"XO$%270855<<<<<<44444444<<<<44<<<<<<<4<<<<4404>;:%",
"%%%,2272,,**,$**&&&&**************#*****;4442>;&@@",
"%%1%:>2:-%#o.oooX+X+oooooooooooooooooooo*;;4>>=#OX",
"%:%111>>;&#+oooo++++XX.. oooooooooooooo#&:>>>:%@OX",
"$%%,1172>;**,#*,&&&##+X.oo#*************;472>>-%$$",
"OO@%120454;4<<<<444;;#+Xo*;;;4444<44444444442>>-&-",
" X+%,3000e66666<00444&+Xo*440000e00ee00000004>>>:&",
" .#&4000eeee00ee00000;+X#;0000000000r0000000044&&$",
" .#;000000000e0000004;#X#;40000000000000000000;&+O",
" X#;40000000000000000;#X#;00000000000000000004;#..",
" X#;40040004000040004;#X#;00000400000040000004;+. ",
" .#&44444444444444444&#X#;4444440444444444444;;+..",
" X#&>>>>>>>>;4;>>>>>;&OX#&;;4;>>44>>>>>>>>>>4;&+. ",
"..X#&&&&&&&&&&&&&&&&&+OXO#&&&&&&&&&&&&&&&&&&&&#X..",
". XX++#++++#+++#++#++X..XO+#X#+#++++++#+++#+++XX..",
"....XX.XXX.XX.X.X.X.XX .X XXX XXX.................",
"...           .   .    ...     .... .... ........."
};
